<svg width="1673" height="691" viewBox="0 0 1673 691" fill="none" xmlns="http://www.w3.org/2000/svg">
<path d="M35.1854 166.504C27.8041 170.195 24.6056 185.449 31.2487 185.449C33.4631 185.449 35.1854 183.973 35.1854 182.005C35.1854 180.036 38.384 175.116 42.3207 170.933C50.194 162.568 46.9955 160.6 35.1854 166.504Z" fill="white"/>
<path d="M31.2485 187.049C34.1289 187.049 36.7846 185.059 36.7847 182.005C36.7847 181.864 36.8659 181.444 37.2056 180.688C37.5238 179.981 38.0027 179.123 38.6206 178.167C39.855 176.257 41.5776 174.057 43.4858 172.029C45.485 169.905 46.8934 168.074 47.6235 166.587C47.9836 165.853 48.2557 165.052 48.2358 164.259C48.2133 163.362 47.8086 162.523 46.9761 162.008C46.2578 161.563 45.4036 161.475 44.6431 161.507C43.8494 161.54 42.9442 161.713 41.9585 161.989C39.9829 162.543 37.4664 163.576 34.4702 165.074C32.285 166.167 30.5046 168.059 29.1704 170.166C27.8299 172.283 26.8757 174.716 26.3921 177.034C25.9155 179.319 25.861 181.666 26.5132 183.535C26.8457 184.488 27.3857 185.382 28.2124 186.039C29.0562 186.71 30.0929 187.049 31.2485 187.049Z" stroke="#949494" stroke-opacity="0.5" stroke-width="3.19885"/>
<path d="M1442.69 363.835V401.974H1456.22H1469.75V388.441C1469.75 370.479 1474.67 370.479 1482.3 388.441L1488.21 401.974H1503.71H1518.97L1511.34 386.965L1503.96 371.955L1509.12 366.296C1512.08 363.097 1515.03 356.207 1515.77 350.548C1517 341.936 1516.26 339.721 1509.62 333.078L1502.23 325.696H1472.46H1442.69V363.835ZM1488.21 350.302C1488.21 352.763 1485.25 354.239 1479.1 354.731C1470.98 355.469 1469.75 354.731 1469.75 350.302C1469.75 345.873 1470.98 345.135 1479.1 345.873C1485.25 346.365 1488.21 347.841 1488.21 350.302Z" fill="white"/>
<path d="M1471.35 403.574V388.441C1471.35 383.992 1471.66 380.785 1472.19 378.738C1472.46 377.706 1472.75 377.094 1472.99 376.773C1473.08 376.647 1473.15 376.593 1473.18 376.572C1473.21 376.576 1473.27 376.588 1473.36 376.63C1473.5 376.695 1473.69 376.816 1473.94 377.03C1474.45 377.463 1475.08 378.178 1475.8 379.24C1477.25 381.358 1478.94 384.614 1480.83 389.066L1480.83 389.074L1480.84 389.081L1486.74 402.614L1487.16 403.574H1521.57L1520.39 401.25L1512.77 386.259L1505.87 372.228L1510.3 367.375H1510.3C1511.95 365.587 1513.51 362.883 1514.75 359.969C1515.99 357.04 1516.96 353.769 1517.35 350.774L1517.56 349.215C1517.99 345.706 1518.03 343.052 1517.15 340.546C1516.16 337.703 1514.06 335.259 1510.75 331.947L1502.9 324.097H1441.09V403.574H1471.35ZM1474.26 353.375C1473.08 353.342 1472.44 353.189 1472.08 353.017C1471.82 352.89 1471.69 352.744 1471.58 352.43C1471.43 352.022 1471.35 351.378 1471.35 350.302C1471.35 349.227 1471.43 348.582 1471.58 348.174C1471.69 347.86 1471.82 347.714 1472.08 347.587C1472.44 347.415 1473.08 347.262 1474.26 347.23C1475.42 347.198 1476.94 347.282 1478.96 347.465L1478.97 347.466L1478.98 347.467C1481.99 347.708 1484.02 348.181 1485.26 348.786C1486.44 349.363 1486.61 349.894 1486.61 350.302C1486.61 350.711 1486.44 351.241 1485.26 351.818C1484.02 352.423 1481.99 352.895 1478.98 353.136L1478.97 353.137L1478.96 353.138C1476.94 353.322 1475.42 353.406 1474.26 353.375Z" stroke="#949494" stroke-opacity="0.5" stroke-width="3.19885"/>
<path d="M1528.81 363.835V401.974H1542.34H1555.88V363.835V325.696H1542.34H1528.81V363.835Z" fill="white"/>
<path d="M1557.48 403.574V324.097H1527.21V403.574H1557.48Z" stroke="#949494" stroke-opacity="0.5" stroke-width="3.19885"/>
<path d="M1587.62 332.34C1580.98 349.81 1563.26 399.021 1563.26 400.498C1563.26 401.236 1569.16 401.974 1576.55 401.974C1587.86 401.974 1590.33 401.236 1591.56 397.053C1592.79 393.116 1595.25 392.132 1605.09 392.132C1614.93 392.132 1617.39 393.116 1618.62 397.053C1619.85 401.236 1622.31 401.974 1633.63 401.974C1641.02 401.974 1646.92 401.236 1646.92 400.006C1646.92 399.021 1641.26 382.043 1634.13 361.867L1621.08 325.696H1605.58C1591.06 325.696 1590.08 326.188 1587.62 332.34ZM1608.78 365.558C1610.26 371.463 1609.76 372.447 1605.09 372.447C1600.66 372.447 1599.92 371.463 1601.15 366.788C1601.89 363.835 1602.63 359.652 1602.63 357.684C1602.63 352.516 1606.81 357.684 1608.78 365.558Z" fill="white"/>
<path d="M1633.63 403.574C1637.36 403.574 1640.77 403.387 1643.27 403.035C1644.51 402.86 1645.6 402.635 1646.43 402.336C1646.83 402.19 1647.27 401.99 1647.64 401.702C1648 401.422 1648.52 400.863 1648.52 400.005C1648.52 399.725 1648.45 399.416 1648.41 399.27C1648.36 399.054 1648.29 398.786 1648.2 398.477C1648.03 397.857 1647.77 397.018 1647.45 395.99C1646.8 393.93 1645.87 391.074 1644.72 387.625C1642.41 380.726 1639.2 371.428 1635.63 361.333L1635.63 361.324L1622.59 325.154L1622.21 324.097H1605.58C1601.96 324.097 1599.12 324.127 1596.89 324.273C1594.67 324.418 1592.92 324.684 1591.52 325.214C1590.04 325.77 1588.98 326.6 1588.13 327.763C1587.33 328.857 1586.74 330.22 1586.13 331.746L1586.13 331.758L1586.12 331.771C1582.8 340.521 1576.7 357.203 1571.44 371.876C1568.81 379.214 1566.39 386.057 1564.62 391.159C1563.74 393.708 1563.01 395.83 1562.51 397.365C1562.26 398.13 1562.06 398.761 1561.92 399.229C1561.86 399.461 1561.8 399.669 1561.76 399.839C1561.74 399.913 1561.69 400.092 1561.67 400.292L1561.66 400.498L1561.67 400.719C1561.74 401.216 1562 401.565 1562.18 401.755C1562.4 401.971 1562.63 402.109 1562.79 402.194C1563.13 402.366 1563.52 402.492 1563.9 402.588C1564.67 402.789 1565.72 402.96 1566.95 403.102C1569.42 403.387 1572.81 403.574 1576.55 403.574C1582.14 403.574 1585.86 403.404 1588.33 402.604C1589.62 402.183 1590.67 401.564 1591.48 400.645C1592.27 399.75 1592.74 398.681 1593.08 397.53L1593.19 397.219C1593.43 396.524 1593.7 396.038 1594.02 395.668C1594.37 395.261 1594.86 394.909 1595.65 394.617C1597.34 393.992 1600.14 393.731 1605.09 393.731C1610.04 393.731 1612.84 393.992 1614.53 394.617C1615.32 394.909 1615.81 395.261 1616.16 395.668C1616.53 396.09 1616.83 396.666 1617.1 397.53C1617.44 398.681 1617.91 399.75 1618.7 400.645C1619.51 401.564 1620.55 402.183 1621.85 402.604C1624.32 403.404 1628.03 403.574 1633.63 403.574ZM1605.09 370.848C1604.01 370.848 1603.29 370.785 1602.81 370.667C1602.59 370.611 1602.45 370.552 1602.38 370.51C1602.32 370.474 1602.31 370.452 1602.31 370.45C1602.3 370.443 1602.2 370.292 1602.22 369.718C1602.24 369.286 1602.33 368.724 1602.5 367.989L1602.7 367.195L1602.7 367.185L1602.7 367.175C1603.37 364.505 1604.07 360.735 1604.2 358.417C1605.22 359.993 1606.41 362.68 1607.23 365.946C1607.6 367.412 1607.82 368.482 1607.89 369.278C1607.97 370.101 1607.87 370.393 1607.83 370.466C1607.82 370.483 1607.81 370.493 1607.79 370.513C1607.74 370.542 1607.64 370.599 1607.43 370.658C1606.97 370.783 1606.24 370.848 1605.09 370.848Z" stroke="#949494" stroke-opacity="0.5" stroke-width="3.19885"/>
<mask id="path-9-outside-1_165_55" maskUnits="userSpaceOnUse" x="-0.80127" y="-0.87793" width="741" height="648" fill="black">
<rect fill="white" x="-0.80127" y="-0.87793" width="741" height="648"/>
<path d="M529.781 5.09369C516.001 9.7688 462.112 32.16 451.04 37.8194C439.228 43.4787 436.768 43.9708 431.354 41.2642C424.218 37.3273 402.318 39.0497 390.261 43.9708C385.832 45.9393 380.665 46.9235 378.942 46.4314C374.759 44.709 346.215 40.28 330.713 38.8036C323.085 38.0654 313.734 35.1127 308.567 31.914C292.081 21.3335 269.196 10.753 263.291 10.753C260.092 10.753 255.417 13.2136 252.71 15.9202C248.527 20.5953 248.035 24.5322 248.773 54.0592L249.511 86.7849L236.47 101.302C229.334 109.176 222.198 117.788 220.721 120.249C218.261 124.678 217.769 124.678 204.727 119.757C170.524 106.716 140.258 104.009 93.7512 110.406C67.176 113.851 59.0558 116.804 32.2346 132.798C16.4863 142.394 3.19873 159.864 3.19873 171.183C3.19873 182.501 12.0571 197.019 26.0829 207.845C54.3805 230.237 115.651 249.675 167.571 252.874C178.89 253.366 189.717 255.335 191.686 257.057C201.036 264.931 193.162 286.338 170.032 314.635C161.419 325.461 151.823 338.502 149.116 343.423C142.472 354.742 136.075 384.515 136.075 403.462C136.075 426.591 150.592 446.276 167.817 446.276C172.492 446.276 178.398 448.982 183.319 453.411C190.701 459.809 203.497 464.73 225.151 469.405C234.747 471.62 253.94 499.67 259.6 519.847C262.307 528.705 266.244 547.159 268.95 560.693C272.887 581.608 280.516 617.532 285.437 637.463C286.421 641.646 288.636 643.122 293.803 643.122C302.169 643.122 302.169 643.122 297.248 621.469C295.28 612.365 292.573 594.649 291.096 582.1C284.699 525.014 274.856 492.781 258.37 472.85L249.019 461.039L260.092 455.626C275.594 448.244 275.594 442.831 259.846 448.982C256.155 450.459 247.543 451.689 240.653 451.443C230.072 451.443 227.365 450.213 221.952 443.815C214.57 435.203 212.355 434.465 212.355 441.355C212.355 447.998 205.465 447.506 196.361 440.124L189.225 434.219L198.821 430.036C204.235 427.821 217.03 425.361 227.119 424.623C245.82 423.638 245.82 423.638 284.453 437.664C299.217 442.831 307.091 441.108 313.242 430.774C320.378 419.455 319.148 416.749 311.274 426.099C307.583 430.528 303.154 433.973 301.185 433.973C295.28 433.973 256.401 406.66 253.694 400.755C251.726 396.326 253.448 391.651 262.799 373.935C277.317 347.36 276.825 343.423 257.631 334.073L243.852 327.43L221.214 332.597C197.345 338.502 182.827 339.486 182.827 335.55C182.827 334.319 189.225 323.985 197.345 312.912C216.538 285.354 230.81 258.533 236.962 238.111C239.915 228.76 242.621 219.656 243.113 217.934C245.574 210.798 241.637 215.965 234.255 229.499C225.643 245.984 217.276 255.335 217.276 248.937C217.276 246.723 219.491 240.325 222.198 234.42C228.596 220.148 228.596 199.972 221.706 172.659L216.538 151.006L225.643 137.227C238.192 118.526 269.689 85.8007 286.175 74.7281C309.797 58.7343 330.959 53.321 363.194 54.5513C368.115 54.7974 372.298 55.7816 372.052 56.7659C372.052 57.9962 364.916 64.3937 356.304 71.5294C341.048 84.3243 332.682 97.1194 329.237 112.867C328.006 117.788 330.959 114.343 338.341 102.041C346.953 87.277 351.383 82.3559 363.44 74.9741C376.481 67.1003 380.172 65.87 399.12 64.8857L420.281 63.6555L439.967 81.8638C450.793 91.9521 463.343 102.287 467.772 104.993C476.384 110.16 477.123 111.637 472.693 116.312C469.987 119.019 470.971 119.265 477.861 117.788L486.227 116.066L484.751 132.798C484.012 142.148 482.782 151.99 481.798 154.697C480.814 157.404 484.997 154.451 490.902 147.807C505.666 131.567 514.279 126.4 526.582 126.4C539.623 126.4 541.346 128.615 553.895 165.277L563.492 192.836L545.529 219.902C535.44 234.666 525.352 247.953 522.645 249.429C519.938 250.66 513.54 251.89 508.127 251.89C500.499 251.89 498.038 250.66 496.07 246.23C492.871 239.341 475.646 218.672 475.646 221.871C475.646 223.101 477.123 228.022 479.091 232.697C491.394 261.732 493.855 323.985 484.505 367.537C476.63 404.446 471.463 418.963 452.27 457.348C436.029 489.828 420.527 538.055 414.376 575.21C412.653 584.314 408.716 600.554 405.517 610.888C398.627 632.049 398.381 633.28 401.58 633.28C403.057 633.28 407.486 625.898 411.669 617.04C419.543 600.554 422.25 593.172 453.008 502.377C462.605 474.326 473.185 445.045 476.63 437.172C479.829 429.298 487.457 407.891 493.363 389.682C504.928 352.774 507.389 327.184 503.452 285.6C501.237 264.439 501.237 264.193 506.651 264.193C509.603 264.193 518.462 260.748 526.09 256.811C533.718 252.628 540.362 249.429 540.854 249.429C542.576 249.429 547.251 274.035 549.466 294.704C550.696 306.761 552.419 317.095 553.157 317.833C553.895 318.572 554.387 306.515 554.387 291.259C554.387 265.423 554.633 263.455 558.324 267.145C563.246 272.067 568.905 297.657 569.397 318.326C569.643 333.827 569.89 333.581 572.842 308.975C574.319 295.196 576.533 283.139 577.518 282.155C580.47 279.202 585.884 289.783 589.083 304.792C593.02 324.723 596.219 327.43 596.219 310.944C596.219 301.594 596.957 298.395 598.925 300.363C602.862 304.3 608.276 327.676 607.292 336.288C604.585 358.433 603.847 374.919 605.815 374.919C606.799 374.919 608.522 368.029 609.506 359.663C612.459 329.89 617.872 315.865 631.652 301.348C651.338 280.925 679.881 262.716 706.456 254.35C719.006 250.167 730.817 246.969 732.786 246.969C734.754 246.969 736.477 245.492 736.477 243.524C736.477 239.587 732.047 240.325 702.027 248.199C679.881 254.104 653.306 266.161 631.16 280.925L617.872 289.783L613.443 284.37C610.983 281.417 605.569 277.726 601.386 276.25C597.203 274.773 592.282 270.59 590.559 267.145C588.837 263.455 585.638 260.748 583.669 261.24C581.455 261.486 574.073 255.581 566.937 248.199L553.895 234.666L564.968 221.871C570.874 214.735 577.026 206.369 578.748 203.416C581.947 197.019 582.439 187.915 579.24 187.915C576.041 187.915 564.722 160.356 562.754 147.069C561.523 137.719 558.817 132.798 549.712 123.202L538.393 111.145L522.645 112.621C510.341 113.605 505.174 113.113 499.269 109.668C495.085 107.454 491.394 105.239 490.902 105.239C490.41 104.993 503.206 91.7061 519.446 75.7123C550.942 44.2169 563.492 24.7783 560.539 12.4754C558.324 4.35547 542.576 0.664612 529.781 5.09369ZM168.063 126.646C174.215 127.877 186.518 131.321 195.869 134.274C210.387 138.703 212.355 140.18 212.355 145.593C212.355 152.482 213.093 152.482 186.518 142.148C170.77 135.997 166.341 135.504 134.844 135.258C102.856 135.258 99.1646 135.75 84.4006 141.902L68.4063 148.545L79.4793 147.561C119.834 143.132 123.279 143.132 138.781 147.069C149.608 150.022 156.99 153.713 162.404 158.88C166.833 163.309 170.524 167.246 170.524 167.984C170.524 168.968 159.451 169.706 145.917 169.706C123.033 169.953 120.08 170.691 104.578 178.319C95.4736 182.994 83.4164 191.36 77.7568 197.265C67.4221 207.845 67.176 207.845 58.0715 204.893C31.9885 196.527 17.9627 184.716 17.9627 171.675C17.9627 164.539 19.6852 162.079 29.7739 154.697C57.5794 134.028 133.122 118.772 168.063 126.646ZM178.644 188.407L188.979 193.82L178.398 195.543C172.738 196.773 166.833 198.249 165.356 198.987C162.896 200.71 140.996 184.224 140.996 180.779C140.996 177.334 168.063 182.994 178.644 188.407ZM140.012 205.385C156.252 215.227 171.754 225.562 174.953 228.76L180.613 234.42L173.723 235.158C170.032 235.65 155.76 235.404 142.226 234.666C120.572 233.435 115.651 232.451 101.133 225.07C91.7826 220.64 84.4006 215.965 84.4006 214.981C84.4006 208.092 102.856 188.161 109.253 187.915C110.238 187.915 124.017 195.789 140.012 205.385ZM212.355 213.259C212.355 221.133 204.235 228.268 197.837 226.054C194.884 225.316 189.225 221.625 184.796 217.934L176.922 211.29L185.534 209.814C189.963 208.83 198.083 208.092 203.251 207.845C211.371 207.599 212.355 208.338 212.355 213.259ZM260.338 353.758C264.767 356.957 264.767 357.203 260.092 365.323C253.94 375.903 250.741 375.903 249.757 365.569C248.281 351.051 251.726 347.36 260.338 353.758ZM165.603 362.862C165.603 365.323 163.88 366.799 161.419 366.553C149.854 365.815 152.561 407.398 165.11 422.162C171.508 429.79 170.77 434.465 164.126 428.806C157.728 423.638 148.378 400.509 148.378 390.174C148.378 371.228 158.713 348.099 163.634 355.726C164.618 357.449 165.603 360.647 165.603 362.862Z"/>
</mask>
<path d="M529.781 5.09369C516.001 9.7688 462.112 32.16 451.04 37.8194C439.228 43.4787 436.768 43.9708 431.354 41.2642C424.218 37.3273 402.318 39.0497 390.261 43.9708C385.832 45.9393 380.665 46.9235 378.942 46.4314C374.759 44.709 346.215 40.28 330.713 38.8036C323.085 38.0654 313.734 35.1127 308.567 31.914C292.081 21.3335 269.196 10.753 263.291 10.753C260.092 10.753 255.417 13.2136 252.71 15.9202C248.527 20.5953 248.035 24.5322 248.773 54.0592L249.511 86.7849L236.47 101.302C229.334 109.176 222.198 117.788 220.721 120.249C218.261 124.678 217.769 124.678 204.727 119.757C170.524 106.716 140.258 104.009 93.7512 110.406C67.176 113.851 59.0558 116.804 32.2346 132.798C16.4863 142.394 3.19873 159.864 3.19873 171.183C3.19873 182.501 12.0571 197.019 26.0829 207.845C54.3805 230.237 115.651 249.675 167.571 252.874C178.89 253.366 189.717 255.335 191.686 257.057C201.036 264.931 193.162 286.338 170.032 314.635C161.419 325.461 151.823 338.502 149.116 343.423C142.472 354.742 136.075 384.515 136.075 403.462C136.075 426.591 150.592 446.276 167.817 446.276C172.492 446.276 178.398 448.982 183.319 453.411C190.701 459.809 203.497 464.73 225.151 469.405C234.747 471.62 253.94 499.67 259.6 519.847C262.307 528.705 266.244 547.159 268.95 560.693C272.887 581.608 280.516 617.532 285.437 637.463C286.421 641.646 288.636 643.122 293.803 643.122C302.169 643.122 302.169 643.122 297.248 621.469C295.28 612.365 292.573 594.649 291.096 582.1C284.699 525.014 274.856 492.781 258.37 472.85L249.019 461.039L260.092 455.626C275.594 448.244 275.594 442.831 259.846 448.982C256.155 450.459 247.543 451.689 240.653 451.443C230.072 451.443 227.365 450.213 221.952 443.815C214.57 435.203 212.355 434.465 212.355 441.355C212.355 447.998 205.465 447.506 196.361 440.124L189.225 434.219L198.821 430.036C204.235 427.821 217.03 425.361 227.119 424.623C245.82 423.638 245.82 423.638 284.453 437.664C299.217 442.831 307.091 441.108 313.242 430.774C320.378 419.455 319.148 416.749 311.274 426.099C307.583 430.528 303.154 433.973 301.185 433.973C295.28 433.973 256.401 406.66 253.694 400.755C251.726 396.326 253.448 391.651 262.799 373.935C277.317 347.36 276.825 343.423 257.631 334.073L243.852 327.43L221.214 332.597C197.345 338.502 182.827 339.486 182.827 335.55C182.827 334.319 189.225 323.985 197.345 312.912C216.538 285.354 230.81 258.533 236.962 238.111C239.915 228.76 242.621 219.656 243.113 217.934C245.574 210.798 241.637 215.965 234.255 229.499C225.643 245.984 217.276 255.335 217.276 248.937C217.276 246.723 219.491 240.325 222.198 234.42C228.596 220.148 228.596 199.972 221.706 172.659L216.538 151.006L225.643 137.227C238.192 118.526 269.689 85.8007 286.175 74.7281C309.797 58.7343 330.959 53.321 363.194 54.5513C368.115 54.7974 372.298 55.7816 372.052 56.7659C372.052 57.9962 364.916 64.3937 356.304 71.5294C341.048 84.3243 332.682 97.1194 329.237 112.867C328.006 117.788 330.959 114.343 338.341 102.041C346.953 87.277 351.383 82.3559 363.44 74.9741C376.481 67.1003 380.172 65.87 399.12 64.8857L420.281 63.6555L439.967 81.8638C450.793 91.9521 463.343 102.287 467.772 104.993C476.384 110.16 477.123 111.637 472.693 116.312C469.987 119.019 470.971 119.265 477.861 117.788L486.227 116.066L484.751 132.798C484.012 142.148 482.782 151.99 481.798 154.697C480.814 157.404 484.997 154.451 490.902 147.807C505.666 131.567 514.279 126.4 526.582 126.4C539.623 126.4 541.346 128.615 553.895 165.277L563.492 192.836L545.529 219.902C535.44 234.666 525.352 247.953 522.645 249.429C519.938 250.66 513.54 251.89 508.127 251.89C500.499 251.89 498.038 250.66 496.07 246.23C492.871 239.341 475.646 218.672 475.646 221.871C475.646 223.101 477.123 228.022 479.091 232.697C491.394 261.732 493.855 323.985 484.505 367.537C476.63 404.446 471.463 418.963 452.27 457.348C436.029 489.828 420.527 538.055 414.376 575.21C412.653 584.314 408.716 600.554 405.517 610.888C398.627 632.049 398.381 633.28 401.58 633.28C403.057 633.28 407.486 625.898 411.669 617.04C419.543 600.554 422.25 593.172 453.008 502.377C462.605 474.326 473.185 445.045 476.63 437.172C479.829 429.298 487.457 407.891 493.363 389.682C504.928 352.774 507.389 327.184 503.452 285.6C501.237 264.439 501.237 264.193 506.651 264.193C509.603 264.193 518.462 260.748 526.09 256.811C533.718 252.628 540.362 249.429 540.854 249.429C542.576 249.429 547.251 274.035 549.466 294.704C550.696 306.761 552.419 317.095 553.157 317.833C553.895 318.572 554.387 306.515 554.387 291.259C554.387 265.423 554.633 263.455 558.324 267.145C563.246 272.067 568.905 297.657 569.397 318.326C569.643 333.827 569.89 333.581 572.842 308.975C574.319 295.196 576.533 283.139 577.518 282.155C580.47 279.202 585.884 289.783 589.083 304.792C593.02 324.723 596.219 327.43 596.219 310.944C596.219 301.594 596.957 298.395 598.925 300.363C602.862 304.3 608.276 327.676 607.292 336.288C604.585 358.433 603.847 374.919 605.815 374.919C606.799 374.919 608.522 368.029 609.506 359.663C612.459 329.89 617.872 315.865 631.652 301.348C651.338 280.925 679.881 262.716 706.456 254.35C719.006 250.167 730.817 246.969 732.786 246.969C734.754 246.969 736.477 245.492 736.477 243.524C736.477 239.587 732.047 240.325 702.027 248.199C679.881 254.104 653.306 266.161 631.16 280.925L617.872 289.783L613.443 284.37C610.983 281.417 605.569 277.726 601.386 276.25C597.203 274.773 592.282 270.59 590.559 267.145C588.837 263.455 585.638 260.748 583.669 261.24C581.455 261.486 574.073 255.581 566.937 248.199L553.895 234.666L564.968 221.871C570.874 214.735 577.026 206.369 578.748 203.416C581.947 197.019 582.439 187.915 579.24 187.915C576.041 187.915 564.722 160.356 562.754 147.069C561.523 137.719 558.817 132.798 549.712 123.202L538.393 111.145L522.645 112.621C510.341 113.605 505.174 113.113 499.269 109.668C495.085 107.454 491.394 105.239 490.902 105.239C490.41 104.993 503.206 91.7061 519.446 75.7123C550.942 44.2169 563.492 24.7783 560.539 12.4754C558.324 4.35547 542.576 0.664612 529.781 5.09369ZM168.063 126.646C174.215 127.877 186.518 131.321 195.869 134.274C210.387 138.703 212.355 140.18 212.355 145.593C212.355 152.482 213.093 152.482 186.518 142.148C170.77 135.997 166.341 135.504 134.844 135.258C102.856 135.258 99.1646 135.75 84.4006 141.902L68.4063 148.545L79.4793 147.561C119.834 143.132 123.279 143.132 138.781 147.069C149.608 150.022 156.99 153.713 162.404 158.88C166.833 163.309 170.524 167.246 170.524 167.984C170.524 168.968 159.451 169.706 145.917 169.706C123.033 169.953 120.08 170.691 104.578 178.319C95.4736 182.994 83.4164 191.36 77.7568 197.265C67.4221 207.845 67.176 207.845 58.0715 204.893C31.9885 196.527 17.9627 184.716 17.9627 171.675C17.9627 164.539 19.6852 162.079 29.7739 154.697C57.5794 134.028 133.122 118.772 168.063 126.646ZM178.644 188.407L188.979 193.82L178.398 195.543C172.738 196.773 166.833 198.249 165.356 198.987C162.896 200.71 140.996 184.224 140.996 180.779C140.996 177.334 168.063 182.994 178.644 188.407ZM140.012 205.385C156.252 215.227 171.754 225.562 174.953 228.76L180.613 234.42L173.723 235.158C170.032 235.65 155.76 235.404 142.226 234.666C120.572 233.435 115.651 232.451 101.133 225.07C91.7826 220.64 84.4006 215.965 84.4006 214.981C84.4006 208.092 102.856 188.161 109.253 187.915C110.238 187.915 124.017 195.789 140.012 205.385ZM212.355 213.259C212.355 221.133 204.235 228.268 197.837 226.054C194.884 225.316 189.225 221.625 184.796 217.934L176.922 211.29L185.534 209.814C189.963 208.83 198.083 208.092 203.251 207.845C211.371 207.599 212.355 208.338 212.355 213.259ZM260.338 353.758C264.767 356.957 264.767 357.203 260.092 365.323C253.94 375.903 250.741 375.903 249.757 365.569C248.281 351.051 251.726 347.36 260.338 353.758ZM165.603 362.862C165.603 365.323 163.88 366.799 161.419 366.553C149.854 365.815 152.561 407.398 165.11 422.162C171.508 429.79 170.77 434.465 164.126 428.806C157.728 423.638 148.378 400.509 148.378 390.174C148.378 371.228 158.713 348.099 163.634 355.726C164.618 357.449 165.603 360.647 165.603 362.862Z" fill="white"/>
<path d="M529.781 5.09369C516.001 9.7688 462.112 32.16 451.04 37.8194C439.228 43.4787 436.768 43.9708 431.354 41.2642C424.218 37.3273 402.318 39.0497 390.261 43.9708C385.832 45.9393 380.665 46.9235 378.942 46.4314C374.759 44.709 346.215 40.28 330.713 38.8036C323.085 38.0654 313.734 35.1127 308.567 31.914C292.081 21.3335 269.196 10.753 263.291 10.753C260.092 10.753 255.417 13.2136 252.71 15.9202C248.527 20.5953 248.035 24.5322 248.773 54.0592L249.511 86.7849L236.47 101.302C229.334 109.176 222.198 117.788 220.721 120.249C218.261 124.678 217.769 124.678 204.727 119.757C170.524 106.716 140.258 104.009 93.7512 110.406C67.176 113.851 59.0558 116.804 32.2346 132.798C16.4863 142.394 3.19873 159.864 3.19873 171.183C3.19873 182.501 12.0571 197.019 26.0829 207.845C54.3805 230.237 115.651 249.675 167.571 252.874C178.89 253.366 189.717 255.335 191.686 257.057C201.036 264.931 193.162 286.338 170.032 314.635C161.419 325.461 151.823 338.502 149.116 343.423C142.472 354.742 136.075 384.515 136.075 403.462C136.075 426.591 150.592 446.276 167.817 446.276C172.492 446.276 178.398 448.982 183.319 453.411C190.701 459.809 203.497 464.73 225.151 469.405C234.747 471.62 253.94 499.67 259.6 519.847C262.307 528.705 266.244 547.159 268.95 560.693C272.887 581.608 280.516 617.532 285.437 637.463C286.421 641.646 288.636 643.122 293.803 643.122C302.169 643.122 302.169 643.122 297.248 621.469C295.28 612.365 292.573 594.649 291.096 582.1C284.699 525.014 274.856 492.781 258.37 472.85L249.019 461.039L260.092 455.626C275.594 448.244 275.594 442.831 259.846 448.982C256.155 450.459 247.543 451.689 240.653 451.443C230.072 451.443 227.365 450.213 221.952 443.815C214.57 435.203 212.355 434.465 212.355 441.355C212.355 447.998 205.465 447.506 196.361 440.124L189.225 434.219L198.821 430.036C204.235 427.821 217.03 425.361 227.119 424.623C245.82 423.638 245.82 423.638 284.453 437.664C299.217 442.831 307.091 441.108 313.242 430.774C320.378 419.455 319.148 416.749 311.274 426.099C307.583 430.528 303.154 433.973 301.185 433.973C295.28 433.973 256.401 406.66 253.694 400.755C251.726 396.326 253.448 391.651 262.799 373.935C277.317 347.36 276.825 343.423 257.631 334.073L243.852 327.43L221.214 332.597C197.345 338.502 182.827 339.486 182.827 335.55C182.827 334.319 189.225 323.985 197.345 312.912C216.538 285.354 230.81 258.533 236.962 238.111C239.915 228.76 242.621 219.656 243.113 217.934C245.574 210.798 241.637 215.965 234.255 229.499C225.643 245.984 217.276 255.335 217.276 248.937C217.276 246.723 219.491 240.325 222.198 234.42C228.596 220.148 228.596 199.972 221.706 172.659L216.538 151.006L225.643 137.227C238.192 118.526 269.689 85.8007 286.175 74.7281C309.797 58.7343 330.959 53.321 363.194 54.5513C368.115 54.7974 372.298 55.7816 372.052 56.7659C372.052 57.9962 364.916 64.3937 356.304 71.5294C341.048 84.3243 332.682 97.1194 329.237 112.867C328.006 117.788 330.959 114.343 338.341 102.041C346.953 87.277 351.383 82.3559 363.44 74.9741C376.481 67.1003 380.172 65.87 399.12 64.8857L420.281 63.6555L439.967 81.8638C450.793 91.9521 463.343 102.287 467.772 104.993C476.384 110.16 477.123 111.637 472.693 116.312C469.987 119.019 470.971 119.265 477.861 117.788L486.227 116.066L484.751 132.798C484.012 142.148 482.782 151.99 481.798 154.697C480.814 157.404 484.997 154.451 490.902 147.807C505.666 131.567 514.279 126.4 526.582 126.4C539.623 126.4 541.346 128.615 553.895 165.277L563.492 192.836L545.529 219.902C535.44 234.666 525.352 247.953 522.645 249.429C519.938 250.66 513.54 251.89 508.127 251.89C500.499 251.89 498.038 250.66 496.07 246.23C492.871 239.341 475.646 218.672 475.646 221.871C475.646 223.101 477.123 228.022 479.091 232.697C491.394 261.732 493.855 323.985 484.505 367.537C476.63 404.446 471.463 418.963 452.27 457.348C436.029 489.828 420.527 538.055 414.376 575.21C412.653 584.314 408.716 600.554 405.517 610.888C398.627 632.049 398.381 633.28 401.58 633.28C403.057 633.28 407.486 625.898 411.669 617.04C419.543 600.554 422.25 593.172 453.008 502.377C462.605 474.326 473.185 445.045 476.63 437.172C479.829 429.298 487.457 407.891 493.363 389.682C504.928 352.774 507.389 327.184 503.452 285.6C501.237 264.439 501.237 264.193 506.651 264.193C509.603 264.193 518.462 260.748 526.09 256.811C533.718 252.628 540.362 249.429 540.854 249.429C542.576 249.429 547.251 274.035 549.466 294.704C550.696 306.761 552.419 317.095 553.157 317.833C553.895 318.572 554.387 306.515 554.387 291.259C554.387 265.423 554.633 263.455 558.324 267.145C563.246 272.067 568.905 297.657 569.397 318.326C569.643 333.827 569.89 333.581 572.842 308.975C574.319 295.196 576.533 283.139 577.518 282.155C580.47 279.202 585.884 289.783 589.083 304.792C593.02 324.723 596.219 327.43 596.219 310.944C596.219 301.594 596.957 298.395 598.925 300.363C602.862 304.3 608.276 327.676 607.292 336.288C604.585 358.433 603.847 374.919 605.815 374.919C606.799 374.919 608.522 368.029 609.506 359.663C612.459 329.89 617.872 315.865 631.652 301.348C651.338 280.925 679.881 262.716 706.456 254.35C719.006 250.167 730.817 246.969 732.786 246.969C734.754 246.969 736.477 245.492 736.477 243.524C736.477 239.587 732.047 240.325 702.027 248.199C679.881 254.104 653.306 266.161 631.16 280.925L617.872 289.783L613.443 284.37C610.983 281.417 605.569 277.726 601.386 276.25C597.203 274.773 592.282 270.59 590.559 267.145C588.837 263.455 585.638 260.748 583.669 261.24C581.455 261.486 574.073 255.581 566.937 248.199L553.895 234.666L564.968 221.871C570.874 214.735 577.026 206.369 578.748 203.416C581.947 197.019 582.439 187.915 579.24 187.915C576.041 187.915 564.722 160.356 562.754 147.069C561.523 137.719 558.817 132.798 549.712 123.202L538.393 111.145L522.645 112.621C510.341 113.605 505.174 113.113 499.269 109.668C495.085 107.454 491.394 105.239 490.902 105.239C490.41 104.993 503.206 91.7061 519.446 75.7123C550.942 44.2169 563.492 24.7783 560.539 12.4754C558.324 4.35547 542.576 0.664612 529.781 5.09369ZM168.063 126.646C174.215 127.877 186.518 131.321 195.869 134.274C210.387 138.703 212.355 140.18 212.355 145.593C212.355 152.482 213.093 152.482 186.518 142.148C170.77 135.997 166.341 135.504 134.844 135.258C102.856 135.258 99.1646 135.75 84.4006 141.902L68.4063 148.545L79.4793 147.561C119.834 143.132 123.279 143.132 138.781 147.069C149.608 150.022 156.99 153.713 162.404 158.88C166.833 163.309 170.524 167.246 170.524 167.984C170.524 168.968 159.451 169.706 145.917 169.706C123.033 169.953 120.08 170.691 104.578 178.319C95.4736 182.994 83.4164 191.36 77.7568 197.265C67.4221 207.845 67.176 207.845 58.0715 204.893C31.9885 196.527 17.9627 184.716 17.9627 171.675C17.9627 164.539 19.6852 162.079 29.7739 154.697C57.5794 134.028 133.122 118.772 168.063 126.646ZM178.644 188.407L188.979 193.82L178.398 195.543C172.738 196.773 166.833 198.249 165.356 198.987C162.896 200.71 140.996 184.224 140.996 180.779C140.996 177.334 168.063 182.994 178.644 188.407ZM140.012 205.385C156.252 215.227 171.754 225.562 174.953 228.76L180.613 234.42L173.723 235.158C170.032 235.65 155.76 235.404 142.226 234.666C120.572 233.435 115.651 232.451 101.133 225.07C91.7826 220.64 84.4006 215.965 84.4006 214.981C84.4006 208.092 102.856 188.161 109.253 187.915C110.238 187.915 124.017 195.789 140.012 205.385ZM212.355 213.259C212.355 221.133 204.235 228.268 197.837 226.054C194.884 225.316 189.225 221.625 184.796 217.934L176.922 211.29L185.534 209.814C189.963 208.83 198.083 208.092 203.251 207.845C211.371 207.599 212.355 208.338 212.355 213.259ZM260.338 353.758C264.767 356.957 264.767 357.203 260.092 365.323C253.94 375.903 250.741 375.903 249.757 365.569C248.281 351.051 251.726 347.36 260.338 353.758ZM165.603 362.862C165.603 365.323 163.88 366.799 161.419 366.553C149.854 365.815 152.561 407.398 165.11 422.162C171.508 429.79 170.77 434.465 164.126 428.806C157.728 423.638 148.378 400.509 148.378 390.174C148.378 371.228 158.713 348.099 163.634 355.726C164.618 357.449 165.603 360.647 165.603 362.862Z" stroke="#949494" stroke-opacity="0.5" stroke-width="6.39771" mask="url(#path-9-outside-1_165_55)"/>
<path d="M289.127 99.81C287.651 106.945 287.405 113.834 288.635 114.818C289.619 116.048 291.341 110.636 292.325 103.008C294.54 85.0478 292.572 83.0795 289.127 99.81Z" fill="white"/>
<path d="M288.248 116.462C288.678 116.63 289.124 116.626 289.517 116.502C290.19 116.29 290.599 115.768 290.801 115.477C291.263 114.812 291.661 113.814 292.006 112.714C292.721 110.44 293.413 107.08 293.912 103.213L293.913 103.205C294.469 98.6901 294.768 95.1447 294.843 92.6265C294.881 91.3727 294.864 90.3325 294.787 89.5376C294.748 89.1429 294.691 88.7634 294.601 88.4292C294.527 88.1548 294.37 87.6601 293.979 87.269C293.752 87.042 293.405 86.8106 292.941 86.7456C292.479 86.681 292.086 86.8066 291.811 86.9556C291.334 87.2143 291.04 87.6332 290.885 87.8774C290.532 88.4353 290.199 89.2523 289.875 90.2163C289.21 92.1961 288.425 95.2851 287.56 99.4878L287.561 99.4888C286.808 103.128 286.363 106.724 286.267 109.567C286.219 110.982 286.257 112.261 286.402 113.286C286.474 113.796 286.58 114.292 286.74 114.731C286.874 115.098 287.1 115.572 287.504 115.95C287.681 116.138 287.923 116.336 288.248 116.462Z" stroke="#949494" stroke-opacity="0.5" stroke-width="3.19885"/>
<path d="M351.382 121.191C350.644 123.652 342.77 133.986 333.911 143.829C315.948 164.005 296.017 192.056 296.017 197.223C296.017 199.192 300.938 194.763 306.844 187.381C312.75 180.245 322.1 170.895 328.006 166.958C336.372 161.299 340.309 155.639 347.937 139.154C358.518 116.024 358.518 116.516 355.319 116.516C354.089 116.516 352.366 118.485 351.382 121.191Z" fill="white"/>
<path d="M295.696 199.172C296.484 199.458 297.223 199.156 297.544 199.008C298.34 198.644 299.296 197.894 300.29 196.994C302.342 195.134 305.103 192.117 308.077 188.401L309.214 187.048C314.889 180.409 322.975 172.414 328.347 168.662L328.893 168.289L328.902 168.283C337.641 162.371 341.729 156.378 349.388 139.826L349.391 139.819C354.647 128.331 357.354 122.543 358.313 119.667C358.556 118.94 358.729 118.28 358.774 117.706C358.818 117.142 358.762 116.362 358.191 115.729C357.644 115.123 356.922 114.994 356.531 114.951C356.131 114.906 355.648 114.917 355.319 114.917C354.595 114.917 353.955 115.199 353.454 115.524C352.94 115.857 352.465 116.303 352.041 116.801C351.192 117.798 350.426 119.14 349.878 120.645L349.863 120.688L349.85 120.732C349.811 120.862 349.681 121.165 349.39 121.68C349.113 122.171 348.734 122.78 348.256 123.495C347.303 124.923 345.995 126.723 344.423 128.767C341.282 132.854 337.126 137.866 332.722 142.758L332.716 142.765C323.692 152.901 314.183 165.005 306.924 175.229C303.296 180.339 300.214 185.003 298.032 188.73C296.942 190.591 296.061 192.246 295.448 193.622C294.868 194.923 294.418 196.204 294.417 197.223C294.417 197.736 294.604 198.777 295.696 199.172Z" stroke="#949494" stroke-opacity="0.5" stroke-width="3.19885"/>
<path d="M247.296 131.796C245.819 133.272 242.867 142.375 240.652 151.971C237.208 166.487 236.962 170.669 239.668 176.82C242.621 183.955 242.621 183.463 245.573 163.288C247.296 151.725 249.51 139.423 250.494 135.486C252.462 128.105 251.724 127.367 247.296 131.796Z" fill="white"/>
<path d="M242.337 182.568C242.954 182.457 243.359 182.082 243.584 181.804C243.813 181.523 243.975 181.203 244.095 180.917C244.552 179.833 244.945 177.901 245.398 175.18C245.862 172.39 246.418 168.556 247.155 163.524C248.874 151.983 251.073 139.777 252.04 135.898L252.382 134.57C252.696 133.307 252.918 132.242 253.033 131.384C253.109 130.815 253.147 130.27 253.11 129.785C253.077 129.35 252.965 128.685 252.489 128.15C251.894 127.481 251.089 127.382 250.471 127.5C249.935 127.604 249.447 127.875 249.057 128.133C248.251 128.668 247.277 129.552 246.165 130.665C245.819 131.01 245.525 131.472 245.278 131.918C245.017 132.39 244.748 132.957 244.476 133.591C243.932 134.862 243.339 136.486 242.731 138.34C241.515 142.05 240.212 146.768 239.096 151.601L238.487 154.207C237.149 160.033 236.396 164.136 236.255 167.464C236.09 171.358 236.762 174.179 238.19 177.432C238.557 178.32 238.891 179.12 239.194 179.781C239.487 180.421 239.795 181.03 240.123 181.487C240.285 181.713 240.516 181.992 240.828 182.212C241.158 182.446 241.689 182.684 242.337 182.568Z" stroke="#949494" stroke-opacity="0.5" stroke-width="3.19885"/>
<path d="M508.371 139.184C505.172 140.661 502.712 142.875 502.712 144.106C502.712 145.336 498.529 150.749 493.361 156.655C488.194 162.314 481.796 170.68 479.089 174.863C476.629 179.292 473.676 182.983 472.692 182.983C471.707 182.983 470.723 175.601 470.477 166.251C470.231 152.226 469.985 150.995 468.016 157.147C466.786 161.084 466.048 170.926 466.294 178.554C466.786 187.166 465.802 193.809 463.833 195.778C461.865 197.746 461.126 205.374 461.126 217.185L461.619 235.885L463.095 218.661C465.556 193.809 469.247 189.626 478.597 201.683C483.026 207.096 484.995 207.589 492.869 206.358C504.926 204.39 509.848 209.557 505.664 220.384C501.235 232.44 508.617 224.074 514.523 210.541C517.23 204.144 522.397 196.27 525.842 193.071C529.779 189.38 532.24 184.459 532.24 180.03C532.24 173.879 533.224 172.894 537.899 173.633C542.328 174.125 543.559 176.093 544.051 183.475C544.543 188.642 545.773 192.825 547.25 192.825C549.956 192.825 547.988 177.323 543.067 159.115C540.36 149.273 537.899 145.336 532.732 142.875C522.397 137.462 514.277 136.478 508.371 139.184Z" fill="white"/>
<path d="M464.687 218.819L464.92 216.56C465.473 211.436 466.086 207.334 466.8 204.182C467.634 200.503 468.55 198.395 469.447 197.406C469.852 196.959 470.179 196.823 470.438 196.79C470.72 196.753 471.158 196.807 471.818 197.163C473.199 197.906 475.009 199.667 477.333 202.664L477.346 202.68L477.359 202.696C479.593 205.427 481.447 207.238 483.957 208.037C486.396 208.813 489.22 208.548 493.116 207.939L493.126 207.937C499.043 206.971 502.547 207.887 504.182 209.658C505.75 211.356 506.204 214.55 504.172 219.807L504.167 219.82L504.164 219.833C503.598 221.371 503.205 222.626 502.974 223.613C502.763 224.513 502.619 225.448 502.792 226.195C502.885 226.598 503.149 227.268 503.883 227.615C504.593 227.95 505.259 227.752 505.602 227.603C506.27 227.312 506.896 226.702 507.412 226.124C509.471 223.815 512.59 218.701 515.426 212.447L515.993 211.172L515.996 211.165C517.304 208.071 519.225 204.587 521.247 201.479C523.281 198.351 525.35 195.711 526.93 194.244L526.936 194.238C531.107 190.327 533.839 185.009 533.839 180.03C533.839 178.515 533.902 177.412 534.042 176.607C534.185 175.791 534.38 175.457 534.505 175.318C534.589 175.225 534.743 175.1 535.222 175.045C535.75 174.986 536.513 175.033 537.65 175.212L537.686 175.218L537.722 175.222C539.716 175.444 540.546 175.939 541.095 176.818C541.779 177.912 542.207 179.863 542.455 183.582L542.458 183.626C542.711 186.276 543.158 188.741 543.761 190.585C544.06 191.497 544.425 192.35 544.885 193.007C545.305 193.607 546.076 194.424 547.25 194.424L547.487 194.414C548.634 194.302 549.248 193.39 549.521 192.75C549.822 192.043 549.962 191.155 550.026 190.228C550.156 188.335 549.994 185.708 549.606 182.6C548.825 176.354 547.084 167.85 544.611 158.698L544.609 158.691C543.245 153.733 541.903 150.1 540.172 147.371C538.409 144.589 536.275 142.799 533.458 141.451C522.965 135.958 514.278 134.718 507.705 137.731L507.701 137.732C505.978 138.527 504.43 139.53 503.286 140.536C502.716 141.037 502.209 141.57 501.833 142.112C501.504 142.584 501.156 143.231 501.116 143.965C501.106 143.992 501.092 144.037 501.063 144.101C500.977 144.292 500.831 144.564 500.613 144.92C500.179 145.63 499.529 146.56 498.697 147.665C497.042 149.861 494.74 152.649 492.18 155.576L491.188 156.678C486.167 162.332 480.333 169.996 477.747 173.994L477.717 174.04L477.691 174.086C476.496 176.236 475.19 178.193 474.083 179.591C473.809 179.936 473.555 180.238 473.324 180.497C473.179 179.82 473.031 178.954 472.893 177.913C472.503 174.97 472.198 170.846 472.076 166.208C472.014 162.71 471.953 159.988 471.864 157.975C471.777 156.024 471.66 154.568 471.44 153.727C471.383 153.509 471.292 153.223 471.133 152.954C470.997 152.722 470.611 152.168 469.846 152.046C469.059 151.921 468.514 152.352 468.307 152.549C468.076 152.769 467.915 153.023 467.809 153.208C467.404 153.915 466.969 155.172 466.493 156.66L466.49 156.669C465.817 158.823 465.316 162.423 465.007 166.34C464.696 170.299 464.57 174.726 464.695 178.605L464.696 178.625L464.697 178.645C464.939 182.877 464.814 186.579 464.403 189.428C464.197 190.854 463.925 192.032 463.608 192.94C463.282 193.874 462.95 194.4 462.703 194.647C461.922 195.428 461.414 196.589 461.045 197.841C460.664 199.137 460.374 200.742 460.154 202.602C459.712 206.326 459.527 211.26 459.527 217.185V217.206L459.528 217.227L460.02 235.927L463.212 236.022L464.687 218.819Z" stroke="#949494" stroke-opacity="0.5" stroke-width="3.19885"/>
<path d="M398.626 184.449C384.108 198.966 372.543 211.023 373.035 211.515C375.004 213.73 411.668 205.118 418.311 201.181C436.274 189.862 444.394 175.837 435.044 172.146C433.075 171.408 431.353 167.963 431.353 164.518C431.353 161.073 429.876 158.367 428.4 158.367C426.678 158.367 413.144 170.177 398.626 184.449ZM428.4 181.25C428.892 184.203 427.662 185.433 424.217 185.433C421.264 185.433 419.05 183.957 419.05 182.234C419.05 174.606 426.924 173.868 428.4 181.25Z" fill="white"/>
<path d="M375.315 213.467C376.613 213.434 378.305 213.253 380.237 212.971C384.114 212.405 389.137 211.403 394.281 210.213C399.429 209.023 404.73 207.638 409.172 206.299C413.274 205.064 416.804 203.821 418.757 202.765L419.126 202.556L419.146 202.545L419.164 202.534C428.266 196.798 435.021 190.293 438.305 184.602C439.938 181.773 440.826 178.948 440.485 176.433C440.123 173.768 438.427 171.761 435.631 170.658L435.619 170.653L435.605 170.648C435.181 170.489 434.5 169.877 433.897 168.644C433.324 167.472 432.953 165.99 432.953 164.518C432.953 162.585 432.541 160.796 431.861 159.435C431.522 158.757 431.087 158.127 430.547 157.648C430.009 157.169 429.277 156.767 428.4 156.767C427.928 156.767 427.508 156.942 427.278 157.047C426.993 157.177 426.688 157.35 426.376 157.544C425.75 157.935 424.976 158.487 424.09 159.165C422.312 160.525 419.976 162.474 417.258 164.852C411.817 169.613 404.781 176.155 397.504 183.308L397.495 183.318C390.231 190.581 383.7 197.236 379.042 202.14C376.716 204.59 374.844 206.617 373.579 208.07C372.951 208.791 372.447 209.4 372.109 209.86C371.947 210.08 371.78 210.323 371.66 210.557C371.605 210.663 371.51 210.862 371.458 211.108C371.427 211.259 371.296 211.969 371.841 212.576L371.839 212.578C371.852 212.591 371.866 212.603 371.878 212.617C371.887 212.626 371.895 212.637 371.904 212.646L371.905 212.645C372.188 212.936 372.513 213.096 372.75 213.186C373.018 213.289 373.298 213.349 373.554 213.388C374.067 213.466 374.672 213.484 375.315 213.467ZM424.217 183.833C422.991 183.833 422.007 183.525 421.381 183.128C420.734 182.718 420.649 182.357 420.649 182.234C420.649 178.947 422.259 177.812 423.331 177.705C424.405 177.597 426.188 178.394 426.826 181.541C427.033 182.813 426.78 183.192 426.654 183.318C426.451 183.52 425.85 183.833 424.217 183.833Z" stroke="#949494" stroke-opacity="0.5" stroke-width="3.19885"/>
<path d="M527.073 209.529C519.938 222.323 516.247 234.625 519.446 234.625C521.168 234.625 527.811 221.339 536.669 199.687C537.161 198.703 536.669 197.719 535.439 197.719C534.454 197.719 530.518 202.886 527.073 209.529Z" fill="white"/>
<path d="M519.662 236.212C520.15 236.158 520.527 235.932 520.748 235.777C521.029 235.578 521.284 235.329 521.507 235.08C521.958 234.577 522.449 233.887 522.969 233.066C524.017 231.412 525.315 229.016 526.815 225.985C529.819 219.915 533.706 211.152 538.137 200.322C538.535 199.472 538.609 198.433 538.082 197.529C537.52 196.566 536.493 196.12 535.439 196.12C535.05 196.12 534.732 196.24 534.539 196.332C534.33 196.43 534.143 196.553 533.987 196.668C533.675 196.899 533.355 197.199 533.043 197.526C532.413 198.186 531.674 199.103 530.883 200.195C529.295 202.386 527.408 205.407 525.653 208.792H525.652C522.055 215.248 519.306 221.611 517.853 226.411C517.133 228.791 516.694 230.906 516.685 232.494C516.681 233.267 516.775 234.112 517.149 234.819C517.348 235.195 517.643 235.563 518.069 235.833C518.501 236.108 518.979 236.224 519.446 236.224L519.662 236.212Z" stroke="#949494" stroke-opacity="0.5" stroke-width="3.19885"/>
<path d="M326.037 251.391C315.703 261.724 312.013 270.581 310.044 288.788C309.06 297.891 309.306 298.876 311.274 293.709C319.148 274.026 325.053 262.216 331.204 253.605C340.554 240.565 337.847 239.581 326.037 251.391Z" fill="white"/>
<path d="M309.323 298.384C309.707 298.476 310.055 298.419 310.317 298.322C310.768 298.155 311.042 297.841 311.148 297.713C311.288 297.545 311.405 297.362 311.499 297.2C311.855 296.584 312.277 295.567 312.759 294.303L314.21 290.71C321.353 273.204 326.847 262.457 332.505 254.535H332.504C334.856 251.255 336.497 248.669 337.43 246.816C337.887 245.909 338.232 245.066 338.365 244.352C338.43 244.001 338.473 243.535 338.344 243.058C338.195 242.506 337.814 241.964 337.158 241.697C336.599 241.47 336.057 241.535 335.704 241.616C335.326 241.703 334.952 241.86 334.603 242.037C333.903 242.393 333.081 242.947 332.165 243.654C330.318 245.079 327.879 247.287 324.906 250.26C319.635 255.53 315.993 260.493 313.432 266.511C310.882 272.503 309.445 279.448 308.454 288.616C308.207 290.896 308.036 292.692 307.949 294.02C307.905 294.682 307.881 295.249 307.882 295.712C307.883 296.137 307.904 296.6 308 296.987C308.041 297.151 308.151 297.545 308.472 297.888C308.658 298.086 308.94 298.292 309.323 298.384Z" stroke="#949494" stroke-opacity="0.5" stroke-width="3.19885"/>
<path d="M457.681 270.09C456.697 276.734 455.959 288.298 455.959 295.926C455.959 303.554 453.252 322.501 450.053 338.002C445.132 361.624 441.441 371.712 428.153 398.532C419.295 416.249 400.84 448.236 387.306 469.397C366.883 501.385 361.469 512.211 355.318 531.896C348.92 553.057 342.522 593.41 343.014 609.158C343.261 616.048 341.538 620.723 361.223 558.224C375.741 511.719 386.322 489.82 408.222 458.325C433.567 422.154 453.006 378.356 460.634 340.955C463.587 326.437 463.833 286.084 461.126 269.106L459.404 258.033L457.681 270.09Z" fill="white"/>
<path d="M342.546 614.425C343.251 614.785 343.909 614.55 344.25 614.33C344.542 614.141 344.727 613.901 344.82 613.771C344.93 613.618 345.026 613.452 345.109 613.294C345.426 612.691 345.823 611.686 346.335 610.249C348.41 604.429 352.916 589.922 362.749 558.705L362.75 558.701C377.229 512.323 387.745 490.576 409.536 459.237H409.535C434.589 423.48 453.912 380.289 461.833 343.044L462.202 341.274V341.273C463.712 333.848 464.51 319.993 464.602 305.964C464.694 291.922 464.08 277.486 462.706 268.861L462.707 268.86L460.984 257.787L457.821 257.807L456.099 269.855L455.916 271.174C455.012 278.032 454.36 288.718 454.36 295.926C454.36 303.378 451.684 322.188 448.487 337.679V337.68C443.6 361.136 439.962 371.095 426.72 397.822V397.823C417.892 415.478 399.47 447.411 385.959 468.535L385.958 468.536C365.506 500.569 360.005 511.535 353.792 531.419L353.789 531.426L353.787 531.433C350.558 542.111 347.346 557.569 345.002 572.306C342.663 587.016 341.164 601.171 341.416 609.208L341.417 609.215C341.447 610.072 341.445 610.823 341.461 611.547C341.469 611.886 341.481 612.221 341.506 612.511C341.527 612.743 341.568 613.151 341.72 613.514C341.786 613.67 342.001 614.146 342.546 614.425Z" stroke="#949494" stroke-opacity="0.5" stroke-width="3.19885"/>
<path d="M516.493 311.179C515.755 315.362 515.016 325.205 515.016 332.832C515.016 354.978 503.943 405.912 493.855 429.041C477.122 468.164 460.636 518.852 455.714 544.688C453.254 558.96 450.547 573.231 449.563 576.676C448.825 580.613 449.071 581.843 450.547 580.367C451.777 578.89 456.453 566.587 460.636 552.808C468.264 528.202 491.64 470.871 504.928 444.051C512.556 429.041 514.77 419.937 522.398 377.123C526.828 350.303 527.074 347.35 523.383 326.681C521.168 314.624 519.2 304.536 518.953 304.044C518.461 303.798 517.477 306.996 516.493 311.179Z" fill="white"/>
<path d="M449.889 582.551C450.346 582.487 450.712 582.279 450.952 582.115C451.145 581.983 451.331 581.828 451.506 581.664L451.678 581.498L451.729 581.446L451.776 581.391C452.06 581.05 452.339 580.545 452.591 580.042C452.865 579.498 453.179 578.81 453.524 578.007C454.215 576.397 455.056 574.262 455.984 571.757C457.84 566.745 460.064 560.197 462.164 553.282L462.921 550.89C471.21 525.226 493.511 470.702 506.354 444.775L507.064 443.361C513.786 429.839 516.266 420.167 522.604 385.043L523.973 377.403L523.975 377.394L523.976 377.384C526.185 364.009 527.378 356.443 527.535 349.632C527.693 342.781 526.803 336.734 524.958 326.399L524.956 326.392C523.848 320.359 522.801 314.817 522 310.719C521.599 308.671 521.26 306.977 521.003 305.763C520.876 305.157 520.766 304.661 520.68 304.296C520.637 304.115 520.598 303.954 520.562 303.823C520.543 303.752 520.483 303.525 520.384 303.328L520.146 302.852L519.668 302.613C518.678 302.118 517.877 302.729 517.646 302.948C517.381 303.2 517.201 303.503 517.089 303.712C516.846 304.166 516.612 304.779 516.39 305.444C515.937 306.805 515.432 308.705 514.936 310.812L514.925 310.856L514.917 310.901C514.157 315.209 513.418 325.151 513.417 332.832C513.417 343.725 510.681 361.857 506.657 380.226C502.635 398.583 497.371 416.98 492.389 428.401L492.384 428.412C475.626 467.595 459.094 518.399 454.143 544.389L454.141 544.402L454.138 544.417C451.67 558.73 448.98 572.895 448.025 576.236L448.004 576.308L447.991 576.381C447.802 577.389 447.668 578.26 447.604 578.979C447.544 579.651 447.526 580.356 447.672 580.939C447.746 581.233 447.905 581.683 448.296 582.051C448.759 582.486 449.351 582.626 449.889 582.551Z" stroke="#949494" stroke-opacity="0.5" stroke-width="3.19885"/>
<path d="M1389.53 306.49C1388.55 308.212 1386.09 312.149 1384.12 315.101C1380.68 320.514 1380.92 320.76 1389.04 320.76C1397.16 320.76 1415.37 310.18 1415.62 305.26C1415.62 302.061 1391.5 303.291 1389.53 306.49Z" fill="white"/>
<path d="M1417.21 305.26C1417.21 304.499 1416.84 303.92 1416.44 303.544C1416.06 303.188 1415.6 302.948 1415.17 302.778C1414.32 302.435 1413.21 302.213 1412.01 302.065C1409.6 301.765 1406.42 301.722 1403.23 301.878C1400.04 302.034 1396.76 302.395 1394.12 302.931C1392.81 303.197 1391.6 303.518 1390.64 303.899C1390.15 304.09 1389.69 304.31 1389.28 304.57C1388.9 304.821 1388.47 305.169 1388.17 305.651L1388.16 305.674L1388.15 305.696C1387.19 307.375 1384.75 311.279 1382.79 314.214L1382.78 314.228L1382.77 314.242C1381.93 315.567 1381.22 316.713 1380.82 317.642C1380.47 318.465 1380.04 319.869 1381.04 321.014C1381.47 321.509 1382.04 321.769 1382.53 321.923C1383.03 322.08 1383.61 322.17 1384.21 322.229C1385.41 322.345 1387.03 322.359 1389.04 322.359C1391.36 322.359 1394.23 321.619 1397.15 320.527C1400.09 319.423 1403.22 317.906 1406.09 316.237C1408.95 314.572 1411.6 312.725 1413.57 310.945C1414.56 310.057 1415.41 309.152 1416.04 308.262C1416.65 307.4 1417.16 306.397 1417.21 305.34L1417.21 305.3V305.26Z" stroke="#949494" stroke-opacity="0.5" stroke-width="3.19885"/>
<path d="M781.999 325.674C765.02 330.841 754.685 350.525 757.884 371.194C760.099 386.696 765.266 394.57 776.585 399.737C788.889 405.15 798.239 405.396 811.527 400.721C817.432 398.507 821.615 398.015 822.107 399.491C822.6 400.967 826.783 401.952 831.458 401.952H839.824V379.806V357.661H817.678H795.532V366.273C795.532 374.639 798.731 376.854 808.574 375.131C809.804 374.885 810.296 376.115 809.804 377.838C808.082 382.759 794.302 383.251 789.627 378.576C784.951 373.655 784.213 352.74 788.642 348.311C793.564 343.39 807.344 344.62 810.788 350.279C813.249 354.216 816.694 355.201 826.783 355.201C833.919 355.201 839.824 354.216 839.824 352.986C839.824 345.604 833.18 335.024 826.045 330.349C816.448 324.443 793.564 321.983 781.999 325.674Z" fill="white"/>
<path d="M793.642 405.611C799.433 405.772 805.295 404.61 812.057 402.23L812.088 402.219C814.983 401.133 817.369 400.505 819.033 400.311C819.874 400.212 820.418 400.24 820.715 400.308C821.081 401.069 821.76 401.57 822.336 401.894C823.037 402.287 823.899 402.591 824.82 402.825C826.672 403.296 829.024 403.551 831.458 403.551H841.423V356.062H836.644C837.708 355.866 838.652 355.628 839.382 355.337C839.784 355.177 840.216 354.963 840.574 354.668C840.914 354.387 841.423 353.83 841.423 352.986C841.423 348.88 839.604 344.093 836.973 339.814C834.329 335.514 830.731 331.507 826.921 329.011L826.902 328.998L826.882 328.986C821.781 325.847 813.378 323.723 804.929 322.822C796.467 321.92 787.6 322.207 781.512 324.149V324.15C763.592 329.618 753.018 350.209 756.303 371.438H756.304C757.429 379.299 759.322 385.396 762.483 390.218C765.666 395.074 770.05 398.512 775.921 401.192L775.931 401.196L775.941 401.201C782.226 403.966 787.845 405.45 793.642 405.611ZM800.765 380.207C798.785 380.279 796.732 380.069 794.927 379.581C793.116 379.091 791.679 378.356 790.778 377.466C789.915 376.552 789.074 374.676 788.432 372.019C787.805 369.423 787.424 366.319 787.319 363.205C787.214 360.09 787.389 357.024 787.844 354.501C788.317 351.884 789.037 350.178 789.773 349.442C790.726 348.489 792.205 347.748 794.067 347.302C795.913 346.859 798.029 346.734 800.127 346.921C802.227 347.108 804.247 347.602 805.911 348.351C807.591 349.107 808.787 350.068 809.422 351.111L809.432 351.127C810.855 353.404 812.64 354.89 815.46 355.747C815.846 355.864 816.251 355.967 816.676 356.062H793.933V366.273C793.933 370.531 794.72 373.938 797.461 375.807C799.991 377.531 803.693 377.564 808.385 376.784C808.372 376.94 808.338 377.129 808.278 377.351C808.05 377.944 807.367 378.631 805.97 379.209C804.585 379.782 802.754 380.135 800.765 380.207Z" stroke="#949494" stroke-opacity="0.5" stroke-width="3.19885"/>
<path d="M956.95 325.682C941.448 330.357 933.328 343.644 933.328 364.313C933.328 390.149 946.861 402.944 973.929 402.944C997.551 402.944 1010.1 393.84 1014.53 373.171C1017.24 361.114 1013.3 343.398 1006.41 335.771C995.828 324.452 975.405 320.269 956.95 325.682ZM984.509 348.319C988.939 352.749 988.2 373.663 983.525 378.339C978.112 383.998 966.054 383.26 962.856 377.6C961.625 374.894 960.395 368.742 960.395 363.821C960.395 350.534 964.086 345.367 973.436 345.367C977.866 345.367 982.787 346.597 984.509 348.319Z" fill="white"/>
<path d="M973.928 404.544C985.922 404.544 995.349 402.236 1002.37 397.1C1009.42 391.945 1013.82 384.108 1016.09 373.521L1016.22 372.926C1017.49 366.725 1017.12 359.296 1015.63 352.468C1014.09 345.444 1011.3 338.803 1007.6 334.698L1007.59 334.688L1007.58 334.679C996.478 322.805 975.369 318.613 956.5 324.147L956.488 324.15C948.382 326.595 942.145 331.322 937.96 338.166C933.795 344.979 931.728 353.783 931.728 364.313C931.728 377.497 935.185 387.645 942.376 394.477C949.552 401.293 960.17 404.544 973.928 404.544ZM982.37 377.233C980.078 379.629 976.221 380.787 972.432 380.616C968.626 380.444 965.519 378.978 964.287 376.88C963.758 375.692 963.182 373.653 962.737 371.25C962.289 368.831 961.995 366.163 961.995 363.821C961.995 357.245 962.925 353.062 964.714 350.536C966.401 348.155 969.066 346.966 973.436 346.966C975.515 346.966 977.718 347.256 979.583 347.744C981.524 348.252 982.832 348.904 983.378 349.45C984.114 350.186 984.835 351.892 985.308 354.506C985.764 357.025 985.937 360.083 985.833 363.183C985.728 366.281 985.346 369.36 984.72 371.919C984.075 374.554 983.235 376.367 982.394 377.208L982.381 377.22L982.37 377.233Z" stroke="#949494" stroke-opacity="0.5" stroke-width="3.19885"/>
<path d="M1205.23 324.962C1188.99 329.145 1177.43 349.076 1180.13 368.76C1183.58 393.12 1194.9 402.962 1220 403.208C1240.91 403.208 1252.48 394.843 1256.91 376.634L1258.63 369.991H1244.85C1232.79 369.991 1231.07 370.483 1231.07 374.912C1231.07 380.079 1221.72 384.016 1215.07 381.309C1209.17 379.095 1205.72 367.53 1208.18 356.457C1209.91 347.353 1210.89 346.615 1219.26 345.877C1227.38 345.139 1228.61 345.877 1230.08 351.29C1231.56 357.196 1232.79 357.688 1244.85 357.688C1252.23 357.688 1258.14 356.704 1258.14 355.227C1258.14 353.997 1256.41 348.338 1253.95 342.678C1251 334.804 1247.55 331.36 1239.93 327.915C1230.33 323.486 1215.81 322.255 1205.23 324.962Z" fill="white"/>
<path d="M1220 404.808C1230.65 404.808 1239.14 402.679 1245.57 398.047C1252.01 393.403 1256.17 386.39 1258.45 377.036L1260.18 370.392L1260.69 368.391H1244.85C1241.83 368.391 1239.42 368.422 1237.51 368.541C1235.62 368.658 1234.09 368.867 1232.91 369.281C1231.67 369.715 1230.69 370.412 1230.11 371.533C1229.57 372.562 1229.47 373.753 1229.47 374.912C1229.47 376.489 1227.94 378.366 1224.96 379.583C1222.09 380.751 1218.53 380.992 1215.68 379.828L1215.66 379.82L1215.64 379.812C1213.4 378.976 1211.28 376.157 1210.03 371.768C1208.85 367.612 1208.59 362.424 1209.64 357.3L1209.75 356.804L1209.75 356.78L1209.76 356.754C1210.19 354.479 1210.55 352.827 1210.98 351.584C1211.4 350.356 1211.83 349.657 1212.32 349.196C1212.81 348.742 1213.48 348.392 1214.62 348.116C1215.78 347.833 1217.3 347.655 1219.4 347.47H1219.4C1221.42 347.287 1222.93 347.203 1224.1 347.249C1225.28 347.294 1225.98 347.467 1226.44 347.702C1227.24 348.115 1227.79 348.954 1228.54 351.711C1228.91 353.181 1229.3 354.505 1229.94 355.587C1230.62 356.754 1231.55 357.604 1232.87 358.172C1234.11 358.709 1235.66 358.971 1237.54 359.114C1239.44 359.257 1241.84 359.288 1244.85 359.288C1248.6 359.288 1252.02 359.038 1254.54 358.585C1255.79 358.361 1256.91 358.072 1257.75 357.694C1258.17 357.507 1258.61 357.257 1258.97 356.913C1259.34 356.56 1259.73 355.993 1259.73 355.227C1259.73 354.693 1259.57 353.925 1259.38 353.152C1259.17 352.316 1258.86 351.281 1258.49 350.121C1257.74 347.805 1256.68 344.937 1255.43 342.066C1253.91 338.035 1252.22 335.004 1249.85 332.528C1247.47 330.048 1244.5 328.227 1240.6 326.463C1230.65 321.875 1215.76 320.618 1204.83 323.413L1204.83 323.414C1196.2 325.636 1188.94 332.002 1184.19 340.25C1179.44 348.508 1177.14 358.767 1178.55 368.978V368.984C1180.3 381.347 1184.08 390.341 1190.9 396.237C1197.7 402.128 1207.26 404.683 1219.98 404.808H1220Z" stroke="#949494" stroke-opacity="0.5" stroke-width="3.19885"/>
<path d="M1378.96 326.926C1376.99 329.141 1351.64 398.283 1351.64 400.744C1351.64 401.482 1357.55 401.974 1364.93 401.974C1376.25 401.974 1378.71 401.236 1379.94 397.053C1381.17 393.116 1383.63 392.132 1393.47 392.132C1403.32 392.132 1405.78 393.116 1407.01 397.053C1408.24 401.236 1410.7 401.974 1422.02 401.974C1430.38 401.974 1435.31 400.99 1435.31 399.021C1435.31 397.545 1429.4 380.567 1422.51 361.128L1409.47 326.188L1395.2 325.204C1387.32 324.712 1379.94 325.45 1378.96 326.926ZM1398.15 369.248C1398.4 370.971 1396.18 372.447 1393.47 372.447C1387.81 372.447 1387.57 370.479 1391.26 360.882L1394.21 353.993L1395.94 360.144C1397.17 363.589 1397.9 367.772 1398.15 369.248Z" fill="white"/>
<path d="M1422.02 403.574C1426.24 403.574 1429.69 403.328 1432.14 402.799C1433.35 402.538 1434.43 402.182 1435.25 401.67C1436.08 401.157 1436.9 400.296 1436.9 399.021C1436.9 398.743 1436.85 398.442 1436.8 398.232C1436.75 397.982 1436.67 397.683 1436.58 397.347C1436.4 396.674 1436.13 395.791 1435.8 394.732C1435.13 392.611 1434.18 389.727 1433.01 386.294C1430.66 379.426 1427.46 370.314 1424.02 360.594L1424.01 360.569L1410.97 325.629L1410.61 324.664L1409.58 324.592L1395.31 323.608H1395.3C1391.29 323.357 1387.38 323.417 1384.33 323.736C1382.8 323.894 1381.44 324.123 1380.37 324.426C1379.83 324.578 1379.32 324.76 1378.88 324.987C1378.49 325.189 1378.02 325.495 1377.68 325.965C1377.52 326.17 1377.39 326.403 1377.3 326.567C1377.17 326.801 1377.03 327.089 1376.88 327.417C1376.57 328.074 1376.19 328.955 1375.74 330.016C1374.85 332.142 1373.7 335.049 1372.37 338.469C1369.71 345.313 1366.35 354.25 1363.06 363.19C1359.77 372.13 1356.53 381.081 1354.12 387.954C1352.92 391.389 1351.92 394.313 1351.22 396.459C1350.86 397.531 1350.59 398.421 1350.39 399.088C1350.3 399.421 1350.22 399.714 1350.16 399.954C1350.13 400.09 1350.08 400.302 1350.06 400.523L1350.04 400.744L1350.06 400.968C1350.12 401.472 1350.39 401.827 1350.59 402.022C1350.81 402.239 1351.06 402.372 1351.22 402.452C1351.56 402.614 1351.96 402.725 1352.33 402.808C1353.1 402.981 1354.15 403.119 1355.38 403.229C1357.84 403.45 1361.21 403.574 1364.93 403.574C1370.53 403.574 1374.24 403.404 1376.71 402.604C1378.01 402.183 1379.06 401.564 1379.87 400.645C1380.66 399.75 1381.13 398.681 1381.47 397.53L1381.57 397.219C1381.81 396.524 1382.08 396.038 1382.4 395.668C1382.75 395.261 1383.24 394.909 1384.03 394.617C1385.72 393.992 1388.52 393.731 1393.47 393.731C1398.43 393.731 1401.22 393.992 1402.92 394.617C1403.71 394.909 1404.2 395.261 1404.55 395.668C1404.91 396.09 1405.21 396.666 1405.48 397.53C1405.82 398.681 1406.29 399.75 1407.08 400.645C1407.89 401.564 1408.94 402.183 1410.24 402.604C1412.71 403.404 1416.42 403.574 1422.02 403.574ZM1393.47 370.848C1392.09 370.848 1391.3 370.717 1390.86 370.525C1390.68 370.442 1390.6 370.368 1390.56 370.323C1390.53 370.278 1390.47 370.186 1390.43 369.977C1390.35 369.494 1390.4 368.635 1390.8 367.149C1391.18 365.708 1391.83 363.86 1392.74 361.484L1393.9 358.793L1394.4 360.576L1394.41 360.629L1394.43 360.682C1395.6 363.955 1396.31 367.977 1396.56 369.477C1396.57 369.517 1396.59 369.788 1396.02 370.17C1395.46 370.548 1394.56 370.848 1393.47 370.848Z" stroke="#949494" stroke-opacity="0.5" stroke-width="3.19885"/>
<path d="M682.834 361.867C675.698 381.797 670.039 399.021 670.039 400.006C670.039 401.236 675.944 401.974 683.326 401.974C694.399 401.974 696.614 401.236 697.844 397.053C698.828 392.87 701.289 392.132 711.378 392.132C721.466 392.132 723.927 392.87 724.911 397.053C725.896 401.236 728.356 401.974 739.921 401.974C747.549 401.974 753.701 401.236 753.701 400.006C753.701 399.021 747.796 382.289 740.66 362.605L727.372 326.926L711.624 326.188L695.876 325.45L682.834 361.867ZM715.315 365.558C716.791 371.709 716.053 372.447 711.132 372.447C705.472 372.447 705.226 371.955 707.687 362.605C710.393 352.516 712.362 353.255 715.315 365.558Z" fill="white"/>
<path d="M739.921 403.574C743.775 403.574 747.298 403.387 749.887 403.036C751.168 402.862 752.3 402.638 753.147 402.343C753.561 402.199 754.009 402.004 754.384 401.721C754.74 401.454 755.3 400.892 755.3 400.005C755.3 399.714 755.221 399.398 755.185 399.254C755.132 399.039 755.057 398.772 754.966 398.467C754.784 397.854 754.52 397.025 754.186 396.013C753.516 393.985 752.551 391.176 751.366 387.79C748.995 381.015 745.732 371.905 742.164 362.06L742.159 362.046L728.871 326.369L728.502 325.378L727.447 325.329L695.951 323.852L694.769 323.797L694.37 324.911L681.329 361.328C677.757 371.303 674.554 380.603 672.243 387.536C671.088 391.001 670.154 393.88 669.507 395.959C669.185 396.997 668.93 397.845 668.755 398.471C668.668 398.783 668.597 399.054 668.546 399.271C668.521 399.382 668.473 399.583 668.451 399.794L668.439 400.005L668.445 400.163C668.504 400.932 668.985 401.439 669.32 401.702C669.688 401.99 670.128 402.19 670.532 402.336C671.356 402.635 672.454 402.86 673.691 403.035C676.192 403.387 679.595 403.574 683.326 403.574C688.796 403.574 692.4 403.405 694.789 402.597C696.053 402.17 697.059 401.54 697.837 400.617C698.594 399.718 699.042 398.648 699.378 397.504L699.391 397.462L699.401 397.419C699.618 396.496 699.883 395.92 700.204 395.519C700.508 395.14 700.951 394.807 701.73 394.532C703.423 393.933 706.272 393.731 711.377 393.731C716.483 393.731 719.332 393.933 721.025 394.532C721.804 394.807 722.248 395.14 722.552 395.519C722.873 395.92 723.137 396.496 723.354 397.419C723.629 398.587 724.045 399.687 724.819 400.613C725.608 401.557 726.655 402.183 727.956 402.604C730.426 403.404 734.204 403.574 739.921 403.574ZM711.131 370.848C709.677 370.848 708.801 370.809 708.243 370.671C707.991 370.609 707.905 370.549 707.89 370.538C707.885 370.534 707.888 370.535 707.89 370.539C707.888 370.536 707.881 370.523 707.871 370.495C707.792 370.275 707.735 369.704 707.967 368.359C708.188 367.078 708.615 365.363 709.232 363.019L709.48 362.117C710.051 360.099 710.562 358.691 711.019 357.827C711.051 357.766 711.085 357.711 711.115 357.659C711.305 357.99 711.526 358.451 711.768 359.07C712.369 360.607 713.026 362.874 713.759 365.931C714.125 367.456 714.328 368.544 714.38 369.334C714.434 370.145 714.308 370.396 714.279 370.442C714.272 370.453 714.258 370.474 714.197 370.51C714.123 370.553 713.98 370.617 713.719 370.675C713.17 370.798 712.358 370.848 711.131 370.848Z" stroke="#949494" stroke-opacity="0.5" stroke-width="3.19885"/>
<path d="M849.912 363.835L850.404 401.974H863.445H876.733L876.979 392.624C877.471 378.106 877.717 376.63 880.916 375.646C882.638 374.908 886.822 380.567 890.759 388.195L897.402 401.974H911.674C919.548 401.974 925.946 401.482 925.946 400.744C925.946 400.006 922.747 392.87 918.564 384.996L911.428 370.725L917.334 365.065C921.763 360.882 923.485 356.699 923.485 350.056C923.485 329.141 916.842 325.696 877.963 325.696H849.419L849.912 363.835ZM896.418 350.302C896.418 354.485 894.696 355.223 886.575 355.223C879.932 355.223 876.733 354.239 876.733 352.024C876.733 346.857 879.44 345.381 888.298 345.381C894.696 345.381 896.418 346.365 896.418 350.302Z" fill="white"/>
<path d="M878.291 403.574L878.332 402.016L878.578 392.678L878.668 390.087C878.877 384.413 879.072 381.269 879.493 379.414C879.723 378.396 879.98 377.984 880.177 377.777C880.359 377.587 880.629 377.42 881.249 377.219C881.333 377.264 881.463 377.343 881.639 377.481C882.182 377.907 882.895 378.663 883.74 379.759C885.411 381.929 887.387 385.154 889.329 388.914L895.961 402.668L896.398 403.574H911.674C915.637 403.574 919.253 403.45 921.896 403.23C923.208 403.121 924.33 402.984 925.148 402.814C925.544 402.732 925.956 402.624 926.302 402.471C926.47 402.397 926.717 402.272 926.946 402.065C927.173 401.859 927.545 401.416 927.545 400.744C927.545 400.481 927.486 400.243 927.458 400.132C927.419 399.984 927.37 399.823 927.315 399.663C927.205 399.339 927.05 398.936 926.862 398.475C926.484 397.548 925.943 396.317 925.276 394.875C923.945 391.995 922.091 388.231 919.994 384.282L919.995 384.281L913.385 371.064L918.432 366.228L918.863 365.813C920.979 363.734 922.529 361.58 923.55 359.09C924.637 356.442 925.084 353.515 925.084 350.056C925.084 344.78 924.672 340.405 923.336 336.862C921.97 333.236 919.661 330.543 916.056 328.622C912.526 326.74 907.809 325.629 901.648 324.971C895.469 324.312 887.693 324.097 877.963 324.097H847.799L847.82 325.716L848.312 363.856L848.804 401.995L848.825 403.574H878.291ZM886.576 353.624C883.287 353.624 881.033 353.374 879.651 352.931C878.966 352.711 878.623 352.483 878.467 352.328C878.355 352.215 878.333 352.141 878.333 352.024C878.333 350.855 878.488 350.046 878.75 349.466C878.996 348.926 879.37 348.505 879.985 348.155C881.357 347.374 883.843 346.98 888.298 346.98C889.868 346.98 891.087 347.042 892.037 347.179C892.994 347.318 893.574 347.521 893.934 347.737C894.441 348.041 894.819 348.54 894.819 350.302C894.819 351.27 894.713 351.838 894.557 352.193C894.432 352.477 894.248 352.693 893.838 352.894C893.366 353.125 892.609 353.324 891.375 353.452C890.156 353.577 888.593 353.624 886.576 353.624Z" stroke="#949494" stroke-opacity="0.5" stroke-width="3.19885"/>
<path d="M1026.83 363.835V401.974H1040.37H1053.9V389.671V377.368H1066.21C1073.59 377.368 1081.22 375.646 1084.66 373.431C1093.27 367.772 1097.21 353.501 1093.27 341.936C1088.6 327.911 1083.43 325.696 1053.41 325.696H1026.83V363.835ZM1066.21 351.532C1066.21 356.453 1064.97 357.684 1060.05 357.684C1055.13 357.684 1053.9 356.453 1053.9 351.532C1053.9 346.611 1055.13 345.381 1060.05 345.381C1064.97 345.381 1066.21 346.611 1066.21 351.532Z" fill="white"/>
<path d="M1055.5 403.574V378.967H1066.21C1070.01 378.967 1073.88 378.524 1077.25 377.793C1080.58 377.07 1083.57 376.036 1085.52 374.777L1085.53 374.773L1085.54 374.768C1090.26 371.669 1093.57 366.305 1095.21 360.321C1096.86 354.322 1096.87 347.534 1094.79 341.42C1093.6 337.869 1092.34 334.913 1090.58 332.531C1088.79 330.105 1086.52 328.336 1083.45 327.077C1080.42 325.835 1076.63 325.101 1071.79 324.668C1066.93 324.235 1060.92 324.097 1053.41 324.097H1025.23V403.574H1055.5ZM1060.05 356.084C1057.58 356.084 1056.68 355.737 1056.26 355.323C1055.85 354.909 1055.5 354.004 1055.5 351.533C1055.5 349.061 1055.85 348.156 1056.26 347.742C1056.68 347.328 1057.58 346.98 1060.05 346.98C1062.53 346.98 1063.43 347.328 1063.84 347.742C1064.26 348.156 1064.61 349.061 1064.61 351.533C1064.61 354.004 1064.26 354.909 1063.84 355.323C1063.43 355.737 1062.53 356.084 1060.05 356.084Z" stroke="#949494" stroke-opacity="0.5" stroke-width="3.19885"/>
<path d="M1105.58 363.835V401.974H1138.8H1172.01V392.132V382.289H1152.33C1134.37 382.289 1132.64 381.797 1132.64 377.368C1132.64 372.939 1134.37 372.447 1149.87 372.447H1167.09V362.605V352.763H1149.87C1136.09 352.763 1132.64 352.024 1132.64 349.072C1132.64 346.119 1136.58 345.381 1152.33 345.381H1172.01V335.538V325.696H1138.8H1105.58V363.835Z" fill="white"/>
<path d="M1173.61 403.574V380.69H1152.33C1147.84 380.69 1144.39 380.659 1141.74 380.545C1139.07 380.431 1137.31 380.235 1136.14 379.939C1134.98 379.645 1134.65 379.315 1134.53 379.124C1134.37 378.878 1134.24 378.44 1134.24 377.369C1134.24 376.303 1134.36 375.826 1134.52 375.557C1134.64 375.363 1134.91 375.061 1135.88 374.785C1136.88 374.499 1138.4 374.305 1140.72 374.191C1143.01 374.078 1145.99 374.046 1149.87 374.046H1168.69V351.164H1149.87C1142.94 351.164 1138.81 350.972 1136.42 350.46C1135.23 350.204 1134.69 349.91 1134.47 349.706C1134.33 349.582 1134.24 349.45 1134.24 349.072C1134.24 348.768 1134.31 348.654 1134.49 348.506C1134.8 348.265 1135.47 347.954 1136.88 347.691C1139.66 347.17 1144.42 346.98 1152.33 346.98H1173.61V324.097H1103.98V403.574H1173.61Z" stroke="#949494" stroke-opacity="0.5" stroke-width="3.19885"/>
<path d="M1267.98 352.737C1267.98 383.741 1270.68 392.107 1283.48 398.75C1294.06 404.163 1318.42 404.409 1328.76 398.75C1341.55 391.86 1344.26 383.741 1344.26 352.737V325.671H1330.72H1317.19V351.015C1317.19 377.589 1315.47 382.264 1306.12 382.264C1296.77 382.264 1295.05 377.589 1295.05 351.015V325.671H1281.51H1267.98V352.737Z" fill="white"/>
<path d="M1306.2 404.501C1314.99 404.532 1323.99 403.181 1329.51 400.159C1336.17 396.575 1340.38 392.544 1342.82 385.296C1345.19 378.246 1345.86 368.211 1345.86 352.737V324.072H1315.59V351.015C1315.59 357.65 1315.48 362.876 1315.18 366.991C1314.88 371.123 1314.38 374.028 1313.65 376.068C1312.94 378.069 1312.05 379.123 1310.99 379.734C1309.88 380.377 1308.36 380.665 1306.12 380.665C1303.88 380.665 1302.36 380.377 1301.24 379.734C1300.19 379.123 1299.3 378.068 1298.58 376.068C1297.86 374.028 1297.36 371.123 1297.06 366.991C1296.75 362.876 1296.65 357.65 1296.65 351.015V324.072H1266.38V352.737C1266.38 368.211 1267.04 378.307 1269.41 385.386C1270.62 388.972 1272.26 391.817 1274.49 394.208C1276.71 396.589 1279.45 398.458 1282.74 400.169L1282.75 400.174C1288.37 403.05 1297.41 404.47 1306.2 404.501Z" stroke="#949494" stroke-opacity="0.5" stroke-width="3.19885"/>
<path d="M566.936 340.444C566.936 343.889 565.952 349.302 565.214 352.746C563.984 358.159 564.23 358.405 566.69 354.468C568.167 352.254 568.905 346.595 568.413 342.167C567.675 336.016 567.429 335.77 566.936 340.444Z" fill="white"/>
<path d="M564.882 358.736C565.313 358.679 565.621 358.475 565.762 358.371C566.064 358.151 566.32 357.848 566.507 357.608C566.916 357.087 567.434 356.296 568.046 355.316H568.045C568.979 353.892 569.563 351.641 569.875 349.365C570.198 347.004 570.265 344.349 570.002 341.99L570 341.977C569.816 340.438 569.659 339.238 569.518 338.385C569.448 337.962 569.377 337.59 569.301 337.292C569.264 337.144 569.217 336.984 569.159 336.83C569.114 336.712 569.005 336.443 568.786 336.192C568.669 336.059 568.445 335.842 568.091 335.713C567.688 335.566 567.252 335.583 566.869 335.749C566.269 336.008 566.029 336.527 565.987 336.613C565.833 336.929 565.752 337.307 565.701 337.573C565.582 338.188 565.469 339.114 565.346 340.277L565.337 340.36V340.444C565.337 343.699 564.39 348.959 563.65 352.411L563.651 352.412C563.346 353.757 563.12 354.828 563 355.608C562.94 355.994 562.896 356.367 562.892 356.689C562.89 356.849 562.898 357.05 562.937 357.261C562.97 357.439 563.061 357.82 563.365 358.167C563.756 358.614 564.328 358.81 564.882 358.736Z" stroke="#949494" stroke-opacity="0.5" stroke-width="3.19885"/>
<path d="M407.976 387.695C389.522 425.094 384.6 430.753 363.194 438.873C354.336 442.071 346.708 443.055 335.143 442.317L319.396 441.333L337.85 446.008C347.938 448.714 359.503 450.929 363.194 451.175C369.345 451.175 369.837 451.913 368.361 456.588C367.623 459.786 365.162 465.446 363.194 469.136C361.225 473.073 360.241 476.764 360.733 477.256C361.963 478.486 390.752 437.888 396.657 427.062C401.332 418.451 426.676 354.478 425.692 353.74C425.199 353.248 417.326 368.503 407.976 387.695Z" fill="white"/>
<path d="M360.857 478.882C361.186 478.872 361.444 478.773 361.587 478.708C361.877 478.577 362.125 478.387 362.296 478.244C362.667 477.936 363.104 477.488 363.574 476.969C364.53 475.911 365.808 474.346 367.296 472.438C370.281 468.61 374.194 463.291 378.245 457.608C386.072 446.626 394.51 434.146 397.763 428.366L398.061 427.828L398.063 427.825C400.459 423.412 408.007 405.149 414.784 388.038C418.185 379.451 421.411 371.104 423.727 364.853C424.884 361.73 425.82 359.116 426.437 357.252C426.744 356.325 426.981 355.555 427.127 354.992C427.198 354.719 427.261 354.444 427.293 354.204C427.308 354.093 427.328 353.915 427.315 353.718C427.309 353.62 427.29 353.453 427.226 353.261C427.176 353.112 427.063 352.852 426.821 352.611L426.823 352.609C426.816 352.603 426.808 352.597 426.801 352.591C426.782 352.572 426.762 352.554 426.742 352.536C426.717 352.515 426.692 352.494 426.667 352.475C426.661 352.47 426.656 352.465 426.651 352.461L426.65 352.462C426.359 352.242 426.012 352.13 425.669 352.129C425.312 352.127 425.041 352.242 424.901 352.313C424.63 352.451 424.444 352.635 424.368 352.714C424.182 352.904 424.006 353.145 423.855 353.363C423.536 353.827 423.125 354.504 422.644 355.343C421.674 357.033 420.338 359.518 418.736 362.599C415.528 368.767 411.216 377.392 406.538 386.994V386.995C397.293 405.73 391.537 416.293 385.488 423.211C379.531 430.022 373.24 433.351 362.626 437.377H362.625C354.02 440.481 346.621 441.447 335.246 440.721H335.244L319.496 439.736L319.003 442.884L337.458 447.559C347.562 450.268 359.237 452.514 363.087 452.771L363.14 452.774H363.194C364.725 452.774 365.799 452.822 366.551 452.942C367.152 453.039 367.377 453.158 367.441 453.199C367.454 453.254 367.471 453.38 367.449 453.627C367.401 454.162 367.205 454.937 366.835 456.106L366.817 456.167L366.802 456.229C366.111 459.222 363.729 464.734 361.783 468.384L361.763 468.421C360.741 470.465 359.966 472.461 359.505 474.04C359.277 474.823 359.112 475.55 359.043 476.153C359.01 476.45 358.993 476.778 359.026 477.094C359.051 477.338 359.137 477.921 359.602 478.387C359.997 478.782 360.485 478.892 360.857 478.882Z" stroke="#949494" stroke-opacity="0.5" stroke-width="3.19885"/>
<path d="M1103.11 412.071C950.798 412.809 785.688 413.793 735.983 414.039L645.43 414.285V429.295V444.55L879.931 442.828C1008.62 442.09 1238.94 440.613 1391.75 439.875L1669.07 438.153V423.635V409.118L1524.63 409.856C1444.9 410.348 1255.43 411.332 1103.11 412.071Z" fill="white"/>
<path d="M1670.67 407.51L1669.06 407.518L1524.62 408.256H1524.62C1444.89 408.748 1255.42 409.733 1103.11 410.471C950.799 411.209 785.671 412.194 735.975 412.44V412.441L645.426 412.686L643.831 412.69V446.162L645.442 446.15L879.943 444.427H879.942C1008.64 443.689 1238.95 442.212 1391.76 441.474H1391.76L1669.08 439.752L1670.67 439.743V407.51Z" stroke="#949494" stroke-opacity="0.5" stroke-width="3.19885"/>
<path d="M1277.82 462.499C1274.37 462.991 1262.56 465.452 1251.49 467.666L1231.07 471.603V578.392V684.936H1265.52H1299.96V650.733C1299.96 612.841 1299.72 613.579 1316.94 613.579C1338.35 613.579 1370.34 601.768 1385.6 587.989C1400.61 574.209 1406.51 557.97 1405.28 533.364C1404.3 516.14 1403.07 511.219 1396.91 501.13C1388.06 486.859 1373.54 475.54 1354.84 468.404C1343.76 464.222 1334.17 462.745 1312.27 462.253C1296.77 461.761 1281.26 461.761 1277.82 462.499ZM1333.18 528.689C1343.03 538.285 1339.34 557.231 1326.54 563.629C1317.19 568.304 1305.62 569.78 1303.66 566.828C1302.67 565.105 1302.67 554.525 1303.66 543.206L1305.38 522.537H1316.2C1324.57 522.537 1328.75 524.014 1333.18 528.689Z" fill="white"/>
<path d="M1301.56 686.535V650.733C1301.56 641.24 1301.55 634.229 1301.79 629.017C1302.04 623.752 1302.55 620.578 1303.45 618.614C1303.88 617.676 1304.38 617.06 1304.96 616.621C1305.56 616.176 1306.32 615.846 1307.36 615.618C1309.55 615.142 1312.54 615.178 1316.94 615.178C1327.9 615.178 1341.44 612.166 1354.13 607.45C1366.82 602.736 1378.83 596.251 1386.67 589.176L1386.68 589.167C1394.35 582.126 1399.74 574.411 1403.03 565.279C1406.32 556.164 1407.5 545.727 1406.88 533.284L1406.88 533.272C1406.39 524.66 1405.83 518.983 1404.58 514.171C1403.33 509.312 1401.4 505.407 1398.28 500.298L1398.27 500.287C1389.2 485.666 1374.37 474.147 1355.41 466.91L1355.4 466.908C1344.08 462.631 1334.27 461.149 1312.32 460.655C1304.55 460.409 1296.78 460.285 1290.51 460.315C1287.38 460.331 1284.61 460.385 1282.4 460.482C1280.29 460.575 1278.58 460.714 1277.56 460.921C1274.02 461.431 1262.16 463.901 1251.18 466.098V466.099L1230.76 470.033L1229.47 470.282V686.535H1301.56ZM1312.11 566.504C1310.04 566.785 1308.28 566.823 1306.96 566.646C1305.7 566.475 1305.19 566.152 1305.03 565.992C1305.01 565.922 1304.96 565.764 1304.9 565.479C1304.83 565.077 1304.75 564.538 1304.69 563.863C1304.58 562.516 1304.52 560.729 1304.52 558.615C1304.52 554.394 1304.76 548.966 1305.25 543.345L1305.25 543.339L1306.85 524.137H1316.2C1320.31 524.137 1323.24 524.502 1325.63 525.364C1327.98 526.213 1329.93 527.586 1332.02 529.789L1332.07 529.834C1336.52 534.176 1337.99 540.724 1336.78 547.057C1335.57 553.386 1331.71 559.257 1325.82 562.198C1321.31 564.457 1316.25 565.943 1312.11 566.504Z" stroke="#949494" stroke-opacity="0.5" stroke-width="3.19885"/>
<path d="M972.945 466.196C959.165 467.181 947.354 468.411 946.862 468.903C946.616 469.395 947.846 485.143 949.569 504.089C953.26 544.689 953.752 581.352 950.553 594.885C947.6 608.418 940.71 616.784 929.884 620.229C917.334 624.412 903.801 621.951 887.806 612.355L874.519 604.235L871.566 626.134C870.089 638.191 867.875 648.033 867.137 648.033C866.152 648.033 853.849 608.172 839.823 559.452C825.798 510.487 813.494 469.641 812.756 468.165C811.28 466.196 729.586 469.149 728.109 471.364C726.879 472.84 668.069 671.409 668.561 671.901C669.299 672.885 733.769 680.021 740.413 680.021C744.842 680.021 746.072 677.56 749.025 663.289L752.47 646.803L769.94 646.065L787.657 645.327L791.84 662.797C795.039 675.592 797.008 680.021 800.207 680.021C802.421 680.021 819.154 677.806 837.363 675.346L870.336 670.917L882.885 676.576C900.11 684.696 919.303 688.141 938.496 686.91C976.39 684.204 1004.44 657.876 1015.76 614.816C1019.7 599.314 1020.93 523.774 1017.73 483.667L1016.25 463.49L1007.39 463.736C1002.47 463.982 986.971 464.966 972.945 466.196ZM776.83 575.2C779.045 585.781 780.767 595.377 780.767 596.607C780.767 597.838 775.846 598.822 770.187 598.822H759.36L764.527 574.216C767.234 560.683 770.433 551.087 771.171 552.809C772.155 554.531 774.616 564.374 776.83 575.2Z" fill="white"/>
<path d="M882.227 678.034C899.156 686.01 917.943 689.53 936.775 688.609L938.598 688.507L938.61 688.506C977.032 685.761 1005.41 659.208 1017.04 616.24L1017.31 615.222L1017.31 615.209C1018.34 611.167 1019.16 603.393 1019.77 593.523C1020.4 583.603 1020.82 571.428 1021.02 558.493C1021.42 532.637 1020.93 503.675 1019.32 483.551L1017.85 463.373L1017.74 461.849L1016.21 461.891L1007.35 462.137L1007.31 462.139C1002.37 462.386 986.851 463.372 972.805 464.604H972.804C965.912 465.096 959.507 465.65 954.755 466.144C952.379 466.39 950.402 466.624 948.98 466.828C948.273 466.93 947.679 467.027 947.233 467.12C947.014 467.166 946.798 467.217 946.611 467.275C946.518 467.304 946.402 467.344 946.283 467.397C946.198 467.436 945.956 467.548 945.731 467.772L945.547 467.956L945.431 468.188C945.277 468.495 945.256 468.803 945.253 468.822C945.242 468.927 945.236 469.034 945.234 469.127C945.229 469.317 945.232 469.554 945.239 469.821C945.253 470.362 945.288 471.111 945.342 472.037C945.451 473.894 945.636 476.512 945.882 479.699C946.375 486.075 947.114 494.757 947.976 504.234C949.819 524.501 950.861 543.773 951.045 559.655C951.23 575.594 950.546 587.963 948.997 594.517L948.991 594.544C946.131 607.653 939.561 615.472 929.399 618.705L929.388 618.708L929.377 618.712C917.423 622.696 904.385 620.436 888.629 610.983L875.353 602.87L873.261 601.592L872.933 604.021L869.981 625.921L869.979 625.93L869.978 625.939C869.245 631.929 868.329 637.359 867.509 641.277C867.331 642.128 867.157 642.901 866.993 643.591C866.683 642.716 866.332 641.695 865.942 640.534C864.437 636.055 862.374 629.564 859.899 621.541C854.951 605.498 848.371 583.365 841.36 559.013L841.361 559.012C834.346 534.524 827.762 512.066 822.839 495.544C820.378 487.283 818.331 480.503 816.853 475.695C816.114 473.292 815.516 471.378 815.079 470.015C814.86 469.334 814.679 468.784 814.541 468.378C814.42 468.026 814.292 467.66 814.187 467.449L814.123 467.32L814.036 467.205C813.772 466.854 813.437 466.687 813.297 466.623C813.12 466.541 812.941 466.487 812.794 466.448C812.497 466.37 812.146 466.312 811.779 466.266C811.033 466.171 810.028 466.101 808.825 466.049C806.408 465.944 803.061 465.906 799.108 465.924C791.195 465.959 780.78 466.213 770.374 466.598C759.967 466.982 749.552 467.498 741.638 468.058C737.685 468.337 734.335 468.628 731.917 468.922C730.713 469.068 729.706 469.219 728.958 469.376C728.59 469.453 728.238 469.542 727.941 469.647C727.794 469.7 727.619 469.771 727.448 469.868C727.309 469.947 727.023 470.125 726.796 470.452C726.69 470.604 726.63 470.738 726.622 470.756C726.586 470.832 726.553 470.912 726.524 470.984C726.465 471.132 726.396 471.32 726.32 471.537C726.166 471.975 725.962 472.589 725.711 473.36C725.21 474.906 724.512 477.123 723.649 479.911C721.922 485.489 719.525 493.373 716.685 502.789C711.005 521.623 703.553 546.602 696.156 571.547C688.758 596.492 681.414 621.408 675.95 640.119C673.218 649.474 670.955 657.28 669.39 662.765C668.608 665.506 667.999 667.672 667.592 669.163C667.39 669.907 667.235 670.493 667.133 670.901C667.083 671.102 667.041 671.279 667.013 671.417C667 671.481 666.983 671.571 666.972 671.663C666.967 671.703 666.957 671.796 666.958 671.91C666.96 671.972 666.976 672.125 666.993 672.219C667.024 672.341 667.153 672.62 667.299 672.849L667.282 672.86C667.33 672.924 667.38 672.98 667.428 673.029C667.429 673.03 667.429 673.031 667.43 673.032H667.431C667.56 673.163 667.681 673.243 667.742 673.281C667.845 673.346 667.94 673.391 668.004 673.419C668.133 673.475 668.262 673.515 668.362 673.545C668.569 673.606 668.821 673.664 669.093 673.721C669.646 673.835 670.41 673.967 671.34 674.112C673.208 674.405 675.83 674.767 678.96 675.171C685.225 675.98 693.57 676.966 702.094 677.92C710.619 678.874 719.332 679.797 726.331 680.482C733.278 681.163 738.653 681.62 740.413 681.62C741.655 681.62 742.883 681.451 744.012 680.798C745.149 680.14 745.994 679.104 746.696 677.736C748.046 675.104 749.128 670.683 750.59 663.616L753.781 648.35L770.008 647.663H770.007L786.408 646.98L790.285 663.169L790.289 663.185C791.885 669.57 793.209 674.024 794.58 676.896C795.929 679.723 797.623 681.62 800.207 681.62C800.873 681.62 802.442 681.467 804.567 681.226C806.743 680.978 809.619 680.623 812.99 680.192C819.732 679.33 828.472 678.161 837.577 676.931H837.576L870.094 672.563L882.227 678.034ZM766.092 574.545L766.094 574.537L766.095 574.529C767.441 567.802 768.904 562.08 770.112 558.275C770.337 557.567 770.549 556.936 770.748 556.384C771.114 557.625 771.535 559.183 771.988 560.981C772.996 564.982 774.16 570.125 775.263 575.521L775.265 575.528C776.37 580.806 777.351 585.837 778.056 589.697C778.409 591.628 778.691 593.261 778.884 594.481C778.981 595.093 779.054 595.593 779.103 595.972C779.108 596.009 779.111 596.044 779.115 596.078C778.727 596.249 778.115 596.436 777.276 596.609C775.471 596.982 772.938 597.223 770.187 597.223H761.331L766.092 574.545Z" stroke="#949494" stroke-opacity="0.5" stroke-width="3.19885"/>
<path d="M1114.68 468.417C1097.45 469.402 1082.94 470.632 1082.44 471.124C1081.95 471.616 1071.37 505.818 1059.07 547.156C1047.01 588.494 1033.48 633.276 1029.54 646.81C1025.36 660.097 1022.4 671.661 1022.9 672.153C1023.88 672.892 1086.38 679.781 1094.75 680.027C1099.18 680.027 1100.41 677.567 1103.11 662.803L1106.31 645.579H1124.28H1141.99L1146.18 662.803C1148.64 673.138 1151.59 680.027 1153.56 680.027C1157.74 680.027 1213.6 672.646 1220.49 671.415C1225.41 670.185 1225.66 669.693 1222.46 658.62C1219.75 647.794 1183.33 521.812 1171.77 482.443L1166.85 465.957L1156.51 466.449C1150.85 466.449 1131.9 467.433 1114.68 468.417ZM1130.43 572.254C1136.58 599.812 1136.83 598.828 1124.28 598.828H1113.7L1118.62 574.222C1121.32 560.689 1124.03 550.109 1124.52 550.601C1125.26 551.093 1127.72 560.935 1130.43 572.254Z" fill="white"/>
<path d="M1094.75 681.627C1095.99 681.627 1097.23 681.458 1098.36 680.789C1099.5 680.115 1100.33 679.053 1101.02 677.652C1102.33 674.954 1103.35 670.409 1104.69 663.096L1107.64 647.179H1140.74L1144.62 663.181C1145.86 668.394 1147.24 672.793 1148.58 675.921C1149.25 677.476 1149.93 678.787 1150.63 679.735C1150.98 680.209 1151.37 680.649 1151.81 680.983C1152.24 681.314 1152.84 681.627 1153.56 681.627L1153.83 681.621C1154.55 681.594 1155.85 681.474 1157.52 681.299C1159.47 681.093 1162.03 680.798 1165 680.442C1170.94 679.73 1178.54 678.768 1186.21 677.769C1201.54 675.772 1217.28 673.614 1220.77 672.99L1220.82 672.98L1220.88 672.967C1222.06 672.672 1223.23 672.363 1224.13 671.832C1225.19 671.211 1225.88 670.29 1226.1 668.972C1226.29 667.82 1226.11 666.426 1225.75 664.78C1225.39 663.096 1224.79 660.938 1223.99 658.177C1221.17 646.942 1184.84 521.273 1173.3 481.992L1173.3 481.985L1168.38 465.499L1168.02 464.3L1166.77 464.359L1156.47 464.851C1150.7 464.856 1131.74 465.84 1114.59 466.82C1105.97 467.313 1098.01 467.868 1092.15 468.361C1089.22 468.608 1086.8 468.841 1085.08 469.044C1084.22 469.145 1083.51 469.241 1082.99 469.331C1082.74 469.375 1082.49 469.423 1082.29 469.477C1082.19 469.503 1082.07 469.539 1081.94 469.589C1081.87 469.616 1081.58 469.73 1081.31 469.993C1081.11 470.194 1081.01 470.415 1081 470.431C1080.96 470.504 1080.93 470.576 1080.9 470.633C1080.85 470.75 1080.8 470.892 1080.74 471.045C1080.62 471.356 1080.47 471.787 1080.29 472.323C1079.92 473.4 1079.42 474.949 1078.79 476.912C1077.54 480.841 1075.78 486.461 1073.66 493.353C1069.41 507.137 1063.69 526.027 1057.54 546.7L1057.53 546.708C1051.51 567.372 1045.11 588.898 1039.73 606.952C1034.35 625 1029.97 639.589 1028 646.362V646.363C1025.91 653.015 1024.12 659.241 1022.92 663.877C1022.31 666.196 1021.85 668.136 1021.57 669.54C1021.43 670.236 1021.33 670.836 1021.28 671.298C1021.25 671.522 1021.24 671.767 1021.25 671.995C1021.25 672.107 1021.26 672.268 1021.3 672.444C1021.34 672.579 1021.44 672.954 1021.77 673.284L1021.85 673.365L1021.94 673.433C1022.19 673.623 1022.46 673.703 1022.5 673.715C1022.6 673.748 1022.71 673.775 1022.8 673.797C1022.99 673.842 1023.23 673.888 1023.49 673.936C1024.04 674.031 1024.78 674.147 1025.7 674.277C1027.53 674.539 1030.1 674.871 1033.17 675.248C1039.31 676.003 1047.48 676.942 1055.88 677.865C1072.63 679.706 1090.43 681.5 1094.7 681.626L1094.73 681.627H1094.75ZM1124.28 597.229H1115.65L1120.19 574.536C1121.53 567.788 1122.88 561.786 1123.95 557.543C1124.15 556.741 1124.35 556.005 1124.52 555.342C1124.73 556.072 1124.95 556.888 1125.19 557.778C1126.23 561.689 1127.52 566.952 1128.87 572.603C1130.41 579.515 1131.57 584.577 1132.25 588.32C1132.95 592.141 1133.09 594.285 1132.81 595.516C1132.68 596.059 1132.49 596.32 1132.31 596.48C1132.1 596.661 1131.75 596.846 1131.07 596.984C1129.64 597.28 1127.54 597.229 1124.28 597.229Z" stroke="#949494" stroke-opacity="0.5" stroke-width="3.19885"/>
<path d="M1434.81 472.591L1415.62 473.575V576.919V680.264L1447.12 678.541C1464.34 677.557 1478.86 676.573 1479.35 676.081C1479.84 675.589 1483.53 637.204 1487.22 590.699C1490.92 544.44 1494.85 498.427 1495.84 488.584L1497.31 470.868L1475.66 471.36C1463.6 471.606 1445.15 472.345 1434.81 472.591Z" fill="white"/>
<path d="M1415.71 681.86L1447.2 680.139L1447.21 680.138C1455.82 679.645 1463.77 679.153 1469.63 678.722C1472.55 678.506 1474.97 678.304 1476.69 678.125C1477.55 678.036 1478.26 677.95 1478.78 677.867C1479.04 677.826 1479.28 677.782 1479.49 677.73C1479.59 677.705 1479.71 677.67 1479.84 677.621C1479.9 677.598 1480.14 677.508 1480.38 677.306L1480.48 677.212L1480.6 677.076C1480.71 676.944 1480.77 676.828 1480.79 676.778C1480.84 676.691 1480.87 676.614 1480.88 676.564C1480.92 676.465 1480.94 676.37 1480.96 676.303C1480.99 676.162 1481.03 675.995 1481.06 675.823C1481.12 675.472 1481.19 674.986 1481.27 674.386C1481.42 673.18 1481.62 671.444 1481.86 669.243C1482.33 664.838 1482.96 658.532 1483.68 650.793C1485.13 635.314 1486.97 614.084 1488.82 590.825H1488.82C1492.28 547.455 1495.96 504.318 1497.21 491.001L1497.43 488.743L1497.43 488.718L1498.91 471.001L1499.06 469.229L1497.28 469.27L1475.62 469.762V469.763C1463.62 470.008 1445.01 470.749 1434.77 470.992H1434.75L1434.73 470.993L1415.54 471.978L1414.02 472.056V681.953L1415.71 681.86Z" stroke="#949494" stroke-opacity="0.5" stroke-width="3.19885"/>
<path d="M279.777 491.782C280.515 494.489 285.436 510.975 290.849 528.691C306.352 579.625 306.598 581.347 306.844 609.89L307.09 636.956L313.488 637.695C318.163 638.187 321.608 636.71 325.299 631.789C331.696 623.669 331.943 618.502 325.791 616.78C320.624 615.549 319.393 612.105 316.933 592.666C315.948 585.776 308.074 560.925 299.216 537.303C284.206 497.196 276.578 479.479 279.777 491.782Z" fill="white"/>
<path d="M313.32 639.285C315.877 639.554 318.221 639.294 320.458 638.212C322.665 637.144 324.626 635.345 326.555 632.779L327.145 632.016C330.019 628.226 331.744 624.82 331.849 621.944C331.908 620.332 331.457 618.859 330.416 617.66C329.402 616.495 327.946 615.722 326.222 615.239L326.162 615.224C325.022 614.952 324.259 614.597 323.648 614.042C323.026 613.477 322.428 612.582 321.849 611.001C320.663 607.761 319.756 602.24 318.519 592.465L318.518 592.452L318.516 592.439C318.001 588.837 315.739 580.769 312.55 570.772C309.343 560.72 305.152 548.576 300.713 536.741C293.208 516.687 287.537 502.201 284.138 494.26C283.288 492.274 282.573 490.68 282.002 489.505C281.718 488.918 281.462 488.42 281.237 488.022C281.029 487.655 280.794 487.275 280.544 486.997C280.456 486.898 280.169 486.579 279.708 486.423C279.428 486.328 279.004 486.268 278.545 486.451C278.095 486.631 277.835 486.957 277.703 487.192C277.478 487.591 277.463 487.994 277.458 488.133C277.452 488.337 277.467 488.546 277.488 488.737C277.57 489.48 277.83 490.65 278.229 492.185L278.231 492.194L278.234 492.203C278.887 494.597 282.743 507.54 287.321 522.6L289.32 529.158C297.081 554.659 300.988 567.73 302.999 577.995C304.996 588.196 305.122 595.625 305.245 609.904L305.491 636.971L305.503 638.384L306.907 638.545L313.304 639.283L313.32 639.285Z" stroke="#949494" stroke-opacity="0.5" stroke-width="3.19885"/>
<path d="M382.63 624.669C375.74 633.281 369.835 640.908 369.835 641.646C369.835 642.384 372.296 643.122 375.494 643.122C379.923 643.122 382.876 639.678 389.519 627.13C394.194 618.519 397.392 610.891 396.654 610.153C396.162 609.415 389.765 616.058 382.63 624.669Z" fill="white"/>
<path d="M375.495 644.722C376.828 644.722 378.099 644.458 379.355 643.809C380.591 643.169 381.735 642.196 382.881 640.884C385.14 638.298 387.613 634.146 390.924 627.893L391.791 626.278C393.768 622.542 395.439 619.053 396.591 616.309C397.247 614.747 397.752 613.386 398.047 612.341C398.193 611.826 398.305 611.323 398.344 610.881C398.363 610.662 398.371 610.393 398.326 610.115C398.289 609.889 398.193 609.507 397.905 609.156C397.398 608.505 396.655 608.464 396.28 608.515C395.916 608.564 395.616 608.711 395.441 608.806C395.059 609.013 394.641 609.33 394.232 609.673C393.386 610.381 392.27 611.46 390.982 612.795C388.393 615.477 384.982 619.322 381.398 623.648L381.38 623.67C377.933 627.979 374.725 632.051 372.375 635.143C371.203 636.686 370.232 637.999 369.551 638.981C369.213 639.469 368.93 639.899 368.726 640.244C368.625 640.415 368.527 640.593 368.449 640.765C368.412 640.846 368.277 641.13 368.244 641.488L368.236 641.646L368.246 641.845C368.34 642.811 369.108 643.351 369.43 643.55C369.894 643.836 370.465 644.046 371.044 644.204C372.226 644.526 373.787 644.722 375.495 644.722Z" stroke="#949494" stroke-opacity="0.5" stroke-width="3.19885"/>
</svg>
