<?xml version="1.0" encoding="UTF-8"?>
<svg id="Layer_1" data-name="Layer 1" xmlns="http://www.w3.org/2000/svg" viewBox="0 0 911.39 75.28">
  <defs>
    <style>
      .cls-1 {
        fill: #bc0f24;
      }
    </style>
  </defs>
  <polygon class="cls-1" points="892.55 13.57 880.63 13.57 847.17 61.71 859.09 61.71 892.55 13.57"/>
  <polygon class="cls-1" points="871.05 13.57 859.39 13.57 825.94 61.71 837.59 61.71 871.05 13.57"/>
  <polygon class="cls-1" points="849.55 13.57 838.16 13.57 804.7 61.71 816.09 61.71 849.55 13.57"/>
  <polygon class="cls-1" points="828.06 13.57 816.92 13.57 783.46 61.71 794.6 61.71 828.06 13.57"/>
  <polygon class="cls-1" points="806.56 13.57 795.68 13.57 762.22 61.71 773.1 61.71 806.56 13.57"/>
  <polygon class="cls-1" points="785.06 13.57 774.44 13.57 740.98 61.71 751.6 61.71 785.06 13.57"/>
  <polygon class="cls-1" points="763.56 13.57 753.2 13.57 719.74 61.71 730.1 61.71 763.56 13.57"/>
  <polygon class="cls-1" points="742.06 13.57 731.96 13.57 698.5 61.71 708.6 61.71 742.06 13.57"/>
  <polygon class="cls-1" points="720.57 13.57 710.73 13.57 677.26 61.71 687.1 61.71 720.57 13.57"/>
  <polygon class="cls-1" points="699.07 13.57 689.49 13.57 656.02 61.71 665.6 61.71 699.07 13.57"/>
  <polygon class="cls-1" points="677.57 13.57 668.25 13.57 634.78 61.71 644.1 61.71 677.57 13.57"/>
  <polygon class="cls-1" points="656.07 13.57 647.01 13.57 613.54 61.71 622.6 61.71 656.07 13.57"/>
  <polygon class="cls-1" points="634.57 13.57 625.77 13.57 592.3 61.71 601.1 61.71 634.57 13.57"/>
  <polygon class="cls-1" points="613.07 13.57 604.54 13.57 571.06 61.71 579.6 61.71 613.07 13.57"/>
  <polygon class="cls-1" points="591.58 13.57 583.3 13.57 549.82 61.71 558.1 61.71 591.58 13.57"/>
  <polygon class="cls-1" points="570.08 13.57 562.06 13.57 528.59 61.71 536.61 61.71 570.08 13.57"/>
  <polygon class="cls-1" points="548.58 13.57 540.82 13.57 507.35 61.71 515.11 61.71 548.58 13.57"/>
  <polygon class="cls-1" points="527.08 13.57 519.58 13.57 486.11 61.71 493.61 61.71 527.08 13.57"/>
  <polygon class="cls-1" points="505.58 13.57 498.34 13.57 464.87 61.71 472.11 61.71 505.58 13.57"/>
  <polygon class="cls-1" points="484.09 13.57 477.11 13.57 443.63 61.71 450.61 61.71 484.09 13.57"/>
  <polygon class="cls-1" points="462.59 13.57 455.87 13.57 422.39 61.71 429.11 61.71 462.59 13.57"/>
  <polygon class="cls-1" points="441.09 13.57 434.63 13.57 401.15 61.71 407.61 61.71 441.09 13.57"/>
  <polygon class="cls-1" points="419.59 13.57 413.39 13.57 379.91 61.71 386.11 61.71 419.59 13.57"/>
  <polygon class="cls-1" points="398.09 13.57 392.15 13.57 358.67 61.71 364.61 61.71 398.09 13.57"/>
  <polygon class="cls-1" points="376.6 13.57 370.92 13.57 337.43 61.71 343.11 61.71 376.6 13.57"/>
  <polygon class="cls-1" points="355.1 13.57 349.68 13.57 316.19 61.71 321.61 61.71 355.1 13.57"/>
  <polygon class="cls-1" points="333.6 13.57 328.44 13.57 294.95 61.71 300.11 61.71 333.6 13.57"/>
  <polygon class="cls-1" points="312.1 13.57 307.2 13.57 273.71 61.71 278.61 61.71 312.1 13.57"/>
  <polygon class="cls-1" points="290.6 13.57 285.96 13.57 252.48 61.71 257.12 61.71 290.6 13.57"/>
  <polygon class="cls-1" points="269.1 13.57 264.72 13.57 231.24 61.71 235.62 61.71 269.1 13.57"/>
  <polygon class="cls-1" points="247.61 13.57 243.49 13.57 210 61.71 214.12 61.71 247.61 13.57"/>
  <polygon class="cls-1" points="226.11 13.57 222.25 13.57 188.76 61.71 192.62 61.71 226.11 13.57"/>
  <polygon class="cls-1" points="204.61 13.57 201.01 13.57 167.52 61.71 171.12 61.71 204.61 13.57"/>
  <polygon class="cls-1" points="183.11 13.57 179.77 13.57 146.28 61.71 149.62 61.71 183.11 13.57"/>
  <polygon class="cls-1" points="161.61 13.57 158.53 13.57 125.04 61.71 128.12 61.71 161.61 13.57"/>
  <polygon class="cls-1" points="140.12 13.57 137.3 13.57 103.8 61.71 106.62 61.71 140.12 13.57"/>
  <polygon class="cls-1" points="118.62 13.57 116.06 13.57 82.56 61.71 85.12 61.71 118.62 13.57"/>
  <polygon class="cls-1" points="97.12 13.57 94.82 13.57 61.32 61.71 63.62 61.71 97.12 13.57"/>
  <polygon class="cls-1" points="75.62 13.57 73.58 13.57 40.08 61.71 42.12 61.71 75.62 13.57"/>
  <polygon class="cls-1" points="54.12 13.57 52.34 13.57 18.84 61.71 20.62 61.71 54.12 13.57"/>
</svg>