<?xml version="1.0" encoding="UTF-8"?>
<svg id="Layer_1" data-name="Layer 1" xmlns="http://www.w3.org/2000/svg" viewBox="0 0 677.39 75.28">
  <defs>
    <style>
      .cls-1 {
        fill: #fff;
      }
    </style>
  </defs>
  <polygon class="cls-1" points="663.82 13.57 651.9 13.57 618.44 61.71 630.36 61.71 663.82 13.57"/>
  <polygon class="cls-1" points="642.61 13.57 631.04 13.57 597.58 61.71 609.15 61.71 642.61 13.57"/>
  <polygon class="cls-1" points="621.41 13.57 610.19 13.57 576.73 61.71 587.95 61.71 621.41 13.57"/>
  <polygon class="cls-1" points="600.2 13.57 589.33 13.57 555.87 61.71 566.74 61.71 600.2 13.57"/>
  <polygon class="cls-1" points="579 13.57 568.47 13.57 535.01 61.71 545.53 61.71 579 13.57"/>
  <polygon class="cls-1" points="557.79 13.57 547.62 13.57 514.15 61.71 524.32 61.71 557.79 13.57"/>
  <polygon class="cls-1" points="536.58 13.57 526.76 13.57 493.3 61.71 503.12 61.71 536.58 13.57"/>
  <polygon class="cls-1" points="515.38 13.57 505.91 13.57 472.44 61.71 481.91 61.71 515.38 13.57"/>
  <polygon class="cls-1" points="494.17 13.57 485.05 13.57 451.58 61.71 460.7 61.71 494.17 13.57"/>
  <polygon class="cls-1" points="472.97 13.57 464.19 13.57 430.72 61.71 439.5 61.71 472.97 13.57"/>
  <polygon class="cls-1" points="451.76 13.57 443.34 13.57 409.87 61.71 418.29 61.71 451.76 13.57"/>
  <polygon class="cls-1" points="430.55 13.57 422.48 13.57 389.01 61.71 397.08 61.71 430.55 13.57"/>
  <polygon class="cls-1" points="409.35 13.57 401.63 13.57 368.15 61.71 375.87 61.71 409.35 13.57"/>
  <polygon class="cls-1" points="388.14 13.57 380.77 13.57 347.29 61.71 354.67 61.71 388.14 13.57"/>
  <polygon class="cls-1" points="366.94 13.57 359.91 13.57 326.44 61.71 333.46 61.71 366.94 13.57"/>
  <polygon class="cls-1" points="345.73 13.57 339.06 13.57 305.58 61.71 312.25 61.71 345.73 13.57"/>
  <polygon class="cls-1" points="324.53 13.57 318.2 13.57 284.72 61.71 291.05 61.71 324.53 13.57"/>
  <polygon class="cls-1" points="303.32 13.57 297.34 13.57 263.86 61.71 269.84 61.71 303.32 13.57"/>
  <polygon class="cls-1" points="282.11 13.57 276.49 13.57 243.01 61.71 248.63 61.71 282.11 13.57"/>
  <polygon class="cls-1" points="260.91 13.57 255.63 13.57 222.15 61.71 227.42 61.71 260.91 13.57"/>
  <polygon class="cls-1" points="239.7 13.57 234.78 13.57 201.29 61.71 206.22 61.71 239.7 13.57"/>
  <polygon class="cls-1" points="218.5 13.57 213.92 13.57 180.43 61.71 185.01 61.71 218.5 13.57"/>
  <polygon class="cls-1" points="197.29 13.57 193.06 13.57 159.57 61.71 163.8 61.71 197.29 13.57"/>
  <polygon class="cls-1" points="176.09 13.57 172.21 13.57 138.72 61.71 142.6 61.71 176.09 13.57"/>
  <polygon class="cls-1" points="154.88 13.57 151.35 13.57 117.86 61.71 121.39 61.71 154.88 13.57"/>
  <polygon class="cls-1" points="133.67 13.57 130.5 13.57 97 61.71 100.18 61.71 133.67 13.57"/>
  <polygon class="cls-1" points="112.47 13.57 109.64 13.57 76.14 61.71 78.97 61.71 112.47 13.57"/>
  <polygon class="cls-1" points="91.26 13.57 88.78 13.57 55.29 61.71 57.77 61.71 91.26 13.57"/>
  <polygon class="cls-1" points="70.06 13.57 67.93 13.57 34.43 61.71 36.56 61.71 70.06 13.57"/>
  <polygon class="cls-1" points="48.85 13.57 47.07 13.57 13.57 61.71 15.35 61.71 48.85 13.57"/>
</svg>