<?xml version="1.0" encoding="UTF-8"?>
<svg id="Layer_1" data-name="Layer 1" xmlns="http://www.w3.org/2000/svg" viewBox="0 0 880.22 75.28">
  <defs>
    <style>
      .cls-1 {
        fill: #bc0f24;
      }

      .cls-2 {
        fill: #f3f3f3;
      }
    </style>
  </defs>
  <g>
    <path class="cls-2" d="M543.16,13.63l-17.34,48.14h11.07l2.31-7.05h5.88l-.53,7.05h12.39l1.94-48.14h-15.71ZM545.9,45.2h-3.57l6.48-22.65-2.92,22.65Z"/>
    <path class="cls-2" d="M840.5,13.82l-17.28,47.94h11.03l2.31-7.02h5.86l-.53,7.02h12.33l1.94-47.94h-15.65ZM843.22,45.27h-3.55l6.46-22.56-2.91,22.56Z"/>
    <path class="cls-2" d="M585.61,13.63l-2.19,28.28-2.43-28.28h-12.39l-9.99,48.14h12.92l3.51-30.76,2.23,30.76h11.22l9.99-48.14h-12.88Z"/>
    <path class="cls-2" d="M635.44,13.63l-9.99,48.14h12.77l9.99-48.14h-12.77Z"/>
    <path class="cls-2" d="M656.74,13.62l-2.07,9.97h7.2l-7.93,38.17h12.7l7.93-38.17h7.2l2.07-9.97h-27.1Z"/>
    <path class="cls-2" d="M703.98,13.63l-7.51,36.16c-.32,1.55-1.05,2.46-2.6,2.46-1.39,0-1.91-.84-1.58-2.46l7.51-36.16h-13.16l-7.61,36.69c-1.53,7.37,1.8,12.23,11.39,12.23h2.48c9.06,0,15.11-4.92,16.62-12.23l7.61-36.69h-13.16Z"/>
    <path class="cls-2" d="M740.09,13.63h-20.05l-9.99,48.14h12.77l4.09-19.73h1.78c1.7,0,2.02.71,1.68,2.32l-2.9,13.98c-.36,1.75-.13,2.85.3,3.43h12.62l.07-.32c-.25-.65-.43-1.68-.05-3.49l3.3-15.91c.75-3.63-1.71-5.57-3.73-6.28,2.42-.85,5.62-2.85,6.55-7.31l1.32-6.34c1.18-5.69-2.11-8.48-7.76-8.48ZM734.58,24.17l-1.35,6.47c-.35,1.68-1.18,2.33-2.8,2.33h-1.63l2.3-11.06h1.86c1.7,0,1.97.58,1.62,2.26Z"/>
    <path class="cls-2" d="M785.7,13.63l-9.99,48.14h12.77l9.99-48.14h-12.77Z"/>
    <path class="cls-2" d="M818.71,13.63l-2.19,28.28-2.43-28.28h-12.39l-9.99,48.14h12.92l3.51-30.76,2.22,30.76h11.23l9.99-48.14h-12.88Z"/>
    <polygon class="cls-2" points="525.97 51.54 523.85 61.77 502.74 61.77 512.73 13.63 524.93 13.63 517.06 51.54 525.97 51.54"/>
    <path class="cls-2" d="M780.62,19.16c-.33-3.93-3.32-5.53-8.55-5.53h-19.35l-9.99,48.14h11.55l.23-6.52c-.02,1.89,1.33,8.43,10.68,7.07,3.89-.56,9.08-5.17,10.43-11.68l1.48-7.12c.3-1.45.3-2.65.1-3.65-.6-2.92-2.96-4.08-4.82-4.57,1.96-.51,5.9-2.71,6.86-7.31l1.1-5.31c.28-1.34.38-2.51.29-3.53ZM763.88,43l-1.59,7.64c-.43,2.07-1.15,2.59-2.7,2.59-.64,0-1.17-.26-1.5-.67-.33-.41-.47-.99-.34-1.63l2.16-10.38h2.09c1.07,0,1.65.26,1.88.8.17.4.15.94,0,1.66ZM767.41,24.11l-1.18,5.69c-.38,1.81-1.35,2.4-2.82,2.4h-1.78l2.15-10.35h1.86c1.78,0,2.08.78,1.77,2.27Z"/>
    <path class="cls-2" d="M862.01,58.19h-.6v1.02s-1.08,0-1.08,0l-.04-3.82h1.76c1.05,0,1.72.54,1.73,1.41,0,.56-.27.98-.74,1.21l.85,1.2h-1.17l-.71-1.02ZM862,56.24h-.61v1.12h.62c.45,0,.68-.21.67-.56s-.23-.56-.68-.56Z"/>
    <path class="cls-2" d="M861.98,61.96c-2.57,0-4.67-2.07-4.7-4.61-.03-2.54,2.04-4.61,4.6-4.61s4.67,2.07,4.7,4.61c.03,2.54-2.04,4.61-4.6,4.61ZM861.9,53.94c-1.9,0-3.43,1.53-3.41,3.41s1.58,3.41,3.48,3.41,3.43-1.53,3.41-3.41-1.58-3.41-3.48-3.41Z"/>
    <path class="cls-2" d="M620.47,13.63h-18.27l-9.99,48.14h19.92s4.65.05,8.15-3.38c0,0,0,0,.01-.01.39-.38.77-.81,1.12-1.29.02-.03.04-.05.06-.08,1.35-1.77,2.35-3.94,2.84-6.3l5.49-26.47c1.6-7.7-2.21-10.61-9.34-10.61ZM607.33,49.76h0s5.64-27.2,5.64-27.2h1.94c1.7,0,2.07.84,1.67,2.78l-5.04,24.26c-.41,2.01-1.15,2.91-3.01,2.91h-1.83l.63-2.76Z"/>
  </g>
  <g>
    <polygon class="cls-1" points="502.74 13.46 495.33 13.46 485.36 61.61 492.77 61.61 502.74 13.46"/>
    <polygon class="cls-1" points="489.84 13.46 482.58 13.46 472.61 61.61 479.87 61.61 489.84 13.46"/>
    <polygon class="cls-1" points="476.94 13.46 469.83 13.46 459.86 61.61 466.97 61.61 476.94 13.46"/>
    <polygon class="cls-1" points="464.04 13.46 457.08 13.46 447.11 61.61 454.07 61.61 464.04 13.46"/>
    <polygon class="cls-1" points="451.13 13.46 444.33 13.46 434.36 61.61 441.16 61.61 451.13 13.46"/>
    <polygon class="cls-1" points="438.23 13.46 431.58 13.46 421.61 61.61 428.26 61.61 438.23 13.46"/>
    <polygon class="cls-1" points="425.33 13.46 418.83 13.46 408.86 61.61 415.36 61.61 425.33 13.46"/>
    <polygon class="cls-1" points="412.43 13.46 406.08 13.46 396.11 61.61 402.46 61.61 412.43 13.46"/>
    <polygon class="cls-1" points="399.53 13.46 393.33 13.46 383.36 61.61 389.56 61.61 399.53 13.46"/>
    <polygon class="cls-1" points="386.63 13.46 380.58 13.46 370.61 61.61 376.66 61.61 386.63 13.46"/>
    <polygon class="cls-1" points="373.72 13.46 367.83 13.46 357.86 61.61 363.75 61.61 373.72 13.46"/>
    <polygon class="cls-1" points="360.82 13.46 355.08 13.46 345.11 61.61 350.85 61.61 360.82 13.46"/>
    <polygon class="cls-1" points="347.92 13.46 342.33 13.46 332.36 61.61 337.95 61.61 347.92 13.46"/>
    <polygon class="cls-1" points="335.02 13.46 329.58 13.46 319.61 61.61 325.05 61.61 335.02 13.46"/>
    <polygon class="cls-1" points="322.12 13.46 316.83 13.46 306.87 61.61 312.15 61.61 322.12 13.46"/>
    <polygon class="cls-1" points="309.22 13.46 304.09 13.46 294.12 61.61 299.25 61.61 309.22 13.46"/>
    <polygon class="cls-1" points="296.31 13.46 291.34 13.46 281.37 61.61 286.34 61.61 296.31 13.46"/>
    <polygon class="cls-1" points="283.41 13.46 278.59 13.46 268.62 61.61 273.44 61.61 283.41 13.46"/>
    <polygon class="cls-1" points="270.51 13.46 265.84 13.46 255.87 61.61 260.54 61.61 270.51 13.46"/>
    <polygon class="cls-1" points="257.61 13.46 253.09 13.46 243.12 61.61 247.64 61.61 257.61 13.46"/>
    <polygon class="cls-1" points="244.71 13.46 240.34 13.46 230.37 61.61 234.74 61.61 244.71 13.46"/>
    <polygon class="cls-1" points="231.81 13.46 227.59 13.46 217.62 61.61 221.84 61.61 231.81 13.46"/>
    <polygon class="cls-1" points="218.9 13.46 214.84 13.46 204.87 61.61 208.93 61.61 218.9 13.46"/>
    <polygon class="cls-1" points="206 13.46 202.09 13.46 192.12 61.61 196.03 61.61 206 13.46"/>
    <polygon class="cls-1" points="193.1 13.46 189.34 13.46 179.37 61.61 183.13 61.61 193.1 13.46"/>
    <polygon class="cls-1" points="180.2 13.46 176.59 13.46 166.62 61.61 170.23 61.61 180.2 13.46"/>
    <polygon class="cls-1" points="167.3 13.46 163.84 13.46 153.87 61.61 157.33 61.61 167.3 13.46"/>
    <polygon class="cls-1" points="154.4 13.46 151.09 13.46 141.12 61.61 144.43 61.61 154.4 13.46"/>
    <polygon class="cls-1" points="141.49 13.46 138.34 13.46 128.37 61.61 131.52 61.61 141.49 13.46"/>
    <polygon class="cls-1" points="128.59 13.46 125.59 13.46 115.62 61.61 118.62 61.61 128.59 13.46"/>
    <polygon class="cls-1" points="115.69 13.46 112.84 13.46 102.88 61.61 105.72 61.61 115.69 13.46"/>
    <polygon class="cls-1" points="102.79 13.46 100.1 13.46 90.13 61.61 92.82 61.61 102.79 13.46"/>
    <polygon class="cls-1" points="89.89 13.46 87.35 13.46 77.38 61.61 79.92 61.61 89.89 13.46"/>
    <polygon class="cls-1" points="76.99 13.46 74.6 13.46 64.63 61.61 67.02 61.61 76.99 13.46"/>
    <polygon class="cls-1" points="64.08 13.46 61.85 13.46 51.88 61.61 54.12 61.61 64.08 13.46"/>
    <polygon class="cls-1" points="51.18 13.46 49.1 13.46 39.13 61.61 41.21 61.61 51.18 13.46"/>
    <polygon class="cls-1" points="38.28 13.46 36.35 13.46 26.38 61.61 28.31 61.61 38.28 13.46"/>
    <polygon class="cls-1" points="25.38 13.46 23.6 13.46 13.63 61.61 15.41 61.61 25.38 13.46"/>
  </g>
</svg>